<svg width="400" height="400" viewbox = "0 0 400 400"  xmlns="http://www.w3.org/2000/svg">

<!--
<topfunctions>






function YofX(){
//foobar foobar
    X = plotparams.g*(x - plotparams.x0) - funcparams.X0;

    Y = Math.sin(X);

    y = plotparams.y0 - plotparams.G*(Y - funcparams.Y0);
}





function plotfunction(){
    
    /*plot one function:*/
    currentStroke = "blue";
    currentLineWidth = 4;
    ctx.strokeStyle = currentStroke;
    ctx.lineWidth = currentLineWidth;
    ctx.beginPath();	
    x = 0;
    intx = x;
    YofX();
    currentSVG += "	<path d = \"M";
    currentSVG += Math.round(x).toString() + " ";
    currentSVG += Math.round(y).toString() + " ";
    for(x = 1;x < plotparams.plotwidth;x++){
        ctx.moveTo(x-1,y);
        YofX();
        ctx.lineTo(x,y);
        currentSVG += "L" + x + " " + y + " ";
    }
    ctx.stroke();
    currentSVG += "\""+ " stroke = \"" + currentStroke + "\" stroke-width = \"" + currentLineWidth.toString() + "\" fill = \"" + "none" + "\" "+"/>";
    /*finish plot one function*/
    
    

}





























</topfunctions>
-->

<!--
<imgurl>

</imgurl>
-->

<!--
<currentjson>
{
    "constants": {},
    "imgurl": "",
    "plotparams": {
        "G": 129.25906810583297,
        "g": 0.047362440744766865,
        "duration": 450.78888054094654,
        "plotwidth": 400,
        "plotheight": 400,
        "x0": 0,
        "y0": 200.00000000000003
    },
    "funcparams": {
        "phi": 0.2688139066614501,
        "T": 1.4465183912692552,
        "X0": 0,
        "Y0": 0
    }
}
</currentjson>
-->

<!--
<equation>
<h2>Sine</h2>
<p style="color:blue">

</p><p class="bigeq">
$$
Y = \sin{X}
$$
</p>
<p></p>

$$
X = g(x - x_0) - X_0
$$
$$
Y = f(X)
$$
    
$$
y = y_0 - G(Y - Y_0)
$$


<p>
    X and Y, and $X_0$ and $Y_0$ in physical units of the System. x and y and x0 and y0 in pixels.  G is in pixels per Y unit and g is in X units per pixel. 
</p>






</equation>
-->
	<path d = "M0 200 L1 193.88026361128527 L2 187.77425245410052 L3 181.6956609772804 L4 175.6581221333079 L5 169.67517680258067 L6 163.76024342417506 L7 157.9265879012193 L8 152.1872938483715 L9 146.55523324813055 L10 141.04303758179225 L11 135.66306949979673 L12 130.42739509500467 L13 125.34775684108759 L14 120.43554725672524 L15 115.70178335467551 L16 111.15708193302201 L17 106.81163576401579 L18 102.6751907339144 L19 98.75702398508855 L20 95.0659231094188 L21 91.61016643964714 L22 88.39750448288551 L23 85.43514253792188 L24 82.72972453530934 L25 80.2873181364818 L26 78.11340112531502 L27 76.21284912265443 L28 74.58992465136285 L29 73.24826757641308 L30 72.19088694146612 L31 71.42015422024377 L32 70.93779799783115 L33 70.74490009383811 L34 70.84189313611427 L35 71.22855959045921 L36 71.9040322485042 L37 72.86679617267104 L38 74.1146920938461 L39 75.64492125414903 L40 77.45405168393522 L41 79.5380258989538 L42 81.8921700003982 L43 84.51120415743998 L44 87.38925444873561 L45 90.51986603634862 L46 93.89601764254073 L47 97.51013729696352 L48 101.35411931893356 L49 105.4193424967029 L50 109.6966894229533 L51 114.17656694314877 L52 118.84892767088483 L53 123.70329252198106 L54 128.7287742167769 L55 133.91410169792135 L56 139.24764540889154 L57 144.71744337654704 L58 150.31122803922176 L59 156.01645376018453 L60 161.82032496476066 L61 167.70982483801018 L62 173.67174451859967 L63 179.6927127233917 L64 185.7592257363117 L65 191.85767769423194 L66 197.97439110194995 L67 204.09564750782167 L68 210.2077182712507 L69 216.2968953530297 L70 222.34952205947673 L71 228.35202367141534 L72 234.29093788930362 L73 240.15294502623027 L74 245.924897881062 L75 251.59385122474322 L76 257.1470908336157 L77 262.57216200464455 L78 267.85689748859573 L79 272.989444778517 L80 277.95829269232195 L81 282.7522971898553 L82 287.36070636654074 L83 291.7731845675531 L84 295.9798355684337 L85 299.9712247701599 L86 303.7384003588885 L87 307.27291338291894 L88 310.5668367018453 L89 313.6127827654002 L90 316.403920182116 L91 318.93398904064316 L92 321.1973149493633 L93 323.1888217628102 L94 324.9040429663544 L95 326.33913169361983 L96 327.49086935416466 L97 328.35667285207614 L98 328.9346003792904 L99 329.2233557706436 L100 329.22229141088735 L101 328.93140968714806 L102 328.351362983573 L103 327.48345221817556 L104 326.3296239251601 L105 324.89246588927114 L106 323.1752013419578 L107 321.1816817323696 L108 318.91637808939777 L109 316.38437099413466 L110 313.5913391852399 L111 310.5435468227708 L112 307.2478294390402 L113 303.71157860801054 L114 299.9427253676092 L115 295.9497224321431 L116 291.74152523470735 L117 287.3275718421057 L118 282.7177617873293 L119 277.92243386706673 L120 272.95234295404225 L121 267.8186358761868 L122 262.53282641673786 L123 257.10676949133983 L124 251.55263456005844 L125 245.88287833394133 L126 240.11021683733634 L127 234.24759688862775 L128 228.30816706335196 L129 222.30524820481483 L130 216.2523035483512 L131 210.16290852623007 L132 204.05072032092582 L133 197.9294472350422 L134 191.81281794658543 L135 185.7145507185384 L136 179.64832263179477 L137 173.62773891045495 L138 167.6663024082815 L139 161.777383324748 L140 155.97418921860344 L141 150.2697353862041 L142 144.67681567104717 L143 139.2079737699755 L144 133.8754751004069 L145 128.69127929168218 L146 123.6670133622301 L147 118.81394564270592 L148 114.14296050358736 L149 109.66453394391011 L150 105.38871009589137 L151 101.32507869813543 L152 97.48275358794564 L153 93.870352260979 L154 90.49597654408592 L155 87.36719442468309 L156 84.49102307741137 L157 81.87391312614638 L158 79.52173417665848 L159 77.43976165236967 L160 75.63266496273167 L161 74.1044970307605 L162 72.85868520321603 L163 71.89802356381199 L164 71.22466666669663 L165 70.8401247042587 L166 70.7452601200958 L167 70.94028567474186 L168 71.42476396849179 L169 72.19760842239333 L170 73.25708571520649 L171 74.60081967086391 L172 76.22579658771502 L173 78.12837199760008 L174 80.30427883959598 L175 82.74863703010156 L176 85.45596440779887 L177 88.42018902894276 L178 91.63466278540446 L179 95.09217631492523 L180 98.78497517014057 L181 102.70477721011142 L182 106.84279117535645 L183 111.18973640472645 L184 115.7358636498987 L185 120.47097694081167 L186 125.38445645299737 L187 130.46528232552734 L188 135.7020593761528 L189 141.08304265820868 L190 146.59616380196198 L191 152.22905808132924 L192 157.96909214525454 L193 163.80339235155571 L194 169.7188736396909 L195 175.70226887769005 L196 181.74015861743328 L197 187.81900119153994 L198 193.925163084371 L199 200.04494950902466 L200 206.16463512175125 L201 212.2704948049002 L202 218.34883444936028 L203 224.386021667453 L204 230.368516367401 L205 236.28290112079424 L206 242.11591125495056 L207 247.8544646026779 L208 253.48569084271708 L209 258.9969603650601 L210 264.3759125964051 L211 269.6104837222227 L212 274.6889337432549 L213 279.5998728057687 L214 284.3322867465092 L215 288.87556179506123 L216 293.2195083782164 L217 297.35438397296093 L218 301.2709149568246 L219 304.9603174065902 L220 308.41431679871397 L221 311.62516656727394 L222 314.58566547782397 L223 317.2891737781903 L224 319.72962808998375 L225 321.90155500743333 L226 323.8000833730389 L227 325.4209552025135 L228 326.7605352345114 L229 327.81581908372493 L230 328.58443997906465 L231 329.06467407180946 L232 329.2554443018227 L233 329.1563228131625 L234 328.7675319136694 L235 328.0899435763786 L236 327.1250774838743 L237 325.87509761997455 L238 324.34280741638787 L239 322.53164346522857 L240 320.4456678114915 L241 318.0895588427732 L242 315.46860079667 L243 312.58867190938815 L244 309.45623123214443 L245 306.07830414492554 L246 302.46246660009587 L247 298.61682813119154 L248 294.5500136650094 L249 290.27114417777955 L250 285.78981623880975 L251 281.1160804874767 L252 276.2604190918385 L253 271.23372223942147 L254 266.04726371291014 L255 260.71267560551473 L256 255.24192223272865 L257 249.6472732989829 L258 243.94127637937993 L259 238.13672877822438 L260 232.24664882746575 L261 226.28424668942503 L262 220.262894729286 L263 214.19609752380273 L264 208.0974615734847 L265 201.9806647861891 L266 195.859425800562 L267 189.7474732181304 L268 183.65851481304736 L269 177.60620678855068 L270 171.6041231490828 L271 165.6657252567648 L272 159.8043316405025 L273 154.03308812543614 L274 148.36493834972777 L275 142.8125947348079 L276 137.38850997419274 L277 132.10484910481344 L278 126.97346222349641 L279 122.00585790978512 L280 117.21317741471175 L281 112.60616967340432 L282 108.19516719757468 L283 103.99006290195224 L284 100.00028791663792 L285 96.23479043513984 L286 92.70201564553118 L287 89.4098867897377 L288 86.365787393438 L289 83.57654470642858 L290 81.04841439059433 L291 78.78706648982583 L292 76.79757271334977 L293 75.08439506099359 L294 73.65137581589441 L295 72.50172892709787 L296 71.63803280137253 L297 71.06222452040686 L298 70.77559549635842 L299 70.7787885754984 L300 71.071796596448 L301 71.65396240623977 L302 72.52398033416824 L303 73.67989912012386 L304 75.11912629084325 L305 76.83843397425998 L306 78.83396613891667 L307 81.10124724220071 L308 83.63519226800858 L309 86.43011813132576 L310 89.47975642414468 L311 92.77726747413436 L312 96.31525568453044 L313 100.0857861208434 L314 104.08040230718247 L315 108.29014519228326 L316 112.70557324270226 L317 117.3167836181134 L318 122.11343438121453 L319 127.0847676924339 L320 132.2196339374131 L321 137.50651673315608 L322 142.93355875675954 L323 148.48858833879768 L324 154.15914676171712 L325 159.93251620201733 L326 165.7957482535511 L327 171.7356929679694 L328 177.73902834718243 L329 183.79229022169034 L330 189.8819024477738 L331 195.99420735581685 L332 202.11549638147713 L333 208.23204081099922 L334 214.33012257172015 L335 220.39606499870894 L336 226.41626350853747 L337 232.37721611138892 L338 238.2655536930693 L339 244.06806999901187 L340 249.77175125301844 L341 255.36380534431544 L342 260.83169051746546 L343 266.16314350078267 L344 271.34620701017184 L345 276.3692565667041 L346 281.2210265677831 L347 285.89063555342995 L348 290.36761061102044 L349 294.6419108637395 L350 298.7039499900742 L351 302.5446177238378 L352 306.1553002865071 L353 309.52789970604374 L354 312.6548519788781 L355 315.52914403431544 L356 318.144329463321 L357 320.49454297640744 L358 322.57451355819705 L359 324.3795762891578 L360 325.90568280799846 L361 327.14941039125847 L362 328.1079696297286 L363 328.77921068448643 L364 329.1616281085153 L365 329.25436422309315 L366 329.0572110413782 L367 328.5706107348781 L368 327.7956546417561 L369 326.7340808191975 L370 325.38827014532785 L371 323.7612409794229 L372 321.85664239238855 L373 319.6787459826922 L374 317.23243629610056 L375 314.5231998707111 L376 311.5571129318456 L377 308.3408277644046 L378 304.8815577932456 L379 301.18706140504844 L380 297.2656245479475 L381 293.1260421479617 L382 288.7775983838968 L383 284.23004586496114 L384 279.493583757794 L385 274.57883491196355 L386 269.49682203523616 L387 264.2589429720518 L388 258.87694514064896 L389 253.36289918617285 L390 247.72917190885548 L391 241.9883985279847 L392 236.1534543438699 L393 230.2374258613541 L394 224.25358143964473 L395 218.21534153428283 L396 212.1362485979935 L397 206.02993670792378 L398 199.91010098738644 L399 193.79046689069105 " stroke = "blue" stroke-width = "4" fill = "none" /></svg>