<svg width="822" height="250" viewbox = "0 0 822 250"  xmlns="http://www.w3.org/2000/svg">

<!--
<json>
{
    "svgwidth": 822,
    "svgheight": 250,
    "unit": 100,
    "x0": 614,
    "y0": 385,
    "x0rel": -70,
    "y0rel": -14,
    "glyph": "0321,0336,0332,0332,0332,0332,0332,0332,0225,0225,0225,0225,0225,0225,0335,0221,0221,0221,0335,0334,0230,0230,0230,0334,",
    "table": [
        "0220:0336,0336,0336,0336,0336,0362,0203,0337,0203,0306,0334,0337,0203,0335,0335,0203,0203,0334,0334,0203,0203,0335,0335,0203,0203,0334,0334,0203,0203,0335,0335,0203,0203,0334,0334,0203,0335,0203,0336,0336,0203,0364,0304,0337,0337,0337,0337,0337,",
        "0221:0336,0314,0336,0313,0337,0362,0245,0245,0245,0245,0364,0337,0314,0337,0313,0336,",
        "0222:0336,0336,0201,0336,0201,0334,0337,0342,0335,0335,0342,0332,0342,0335,0335,0342,0335,0336,0201,0337,0201,0335,0335,0337,0337,0335,0335,",
        "0223:0336,0336,0336,0331,0342,0304,0313,0335,0362,0203,0350,0335,0335,0335,0310,0337,0203,0335,0335,0203,0335,0335,0335,0336,0203,0364,0334,0334,0304,0313,0330,0337,0337,0337,",
        "0224:0336,0336,0336,0201,0330,0330,0337,0341,0330,0341,0330,0336,0201,0337,0337,0337,",
        "0225:0335,0220,0335,0222,0335,0335,0223,0330,0340,0335,0336,0201,0334,0337,",
        "0226:0336,0336,0201,0337,0304,0313,0336,0330,0337,0336,0341,0332,0336,0350,0335,0342,0335,0335,0342,0335,0335,0342,0335,0335,0342,0335,0304,0337,0337,0333,0336,0336,0350,0335,0342,0335,0335,0342,0335,0335,0342,0335,0335,0342,0335,0304,0337,0332,0330,0337,0336,0201,0337,0337,",
        "0227:0334,0336,0331,0337,0342,0335,0221,0331,0332,0222,0335,0201,0334,0336,0332,0337,",
        "0230:0336,0336,0201,0333,0337,0200,0336,0330,0334,0337,0342,0336,0333,0330,0335,0201,0337,0337,",
        "0231:0313,0304,0201,0336,0331,0350,0335,0336,0331,0337,0342,0336,0330,0334,0334,0331,0337,0342,0336,0330,0335,0337,0330,0304,0337,",
        "0232:0342,0336,0330,0336,0336,0330,0337,0337,0335,0336,0331,0337,0342,0336,0330,0350,0335,0310,0337,0362,0203,0335,0335,0335,0337,0203,0335,0335,0335,0336,0203,0363,0334,0337,0330,0304,0313,0336,0336,0331,0337,0337,0337,",
        "0233:0336,0336,0201,0340,0337,0337,0227,0336,0336,0340,0201,0337,0337,",
        "0234:0336,0333,0337,0200,0336,0330,0332,0335,0335,0210,0210,0210,0343,0335,0335,0350,0334,0350,0334,0343,0335,0335,0335,0335,0335,0351,0343,0334,0330,0335,0336,0330,0335,0335,0335,0335,0362,0203,0334,0334,0203,0364,0331,0335,0304,0335,0335,0331,0331,0337,0211,0211,0211,0330,0337,",
        "0235:0304,0313,0336,0334,0336,0362,0203,0335,0337,0337,0203,0336,0203,0335,0203,0335,0203,0203,0203,0335,0336,0203,0364,0335,0337,0337,0362,0203,0336,0203,0364,0331,0331,0331,0336,0333,0350,0334,0343,0335,0330,0330,0330,0330,0330,0330,0334,0334,0334,0343,0335,0330,0335,0335,0304,0337,0337,",
        "0236:0336,0336,0336,0333,0337,0337,0332,0362,0203,0336,0203,0335,0203,0203,0203,0203,0203,0335,0203,0203,0203,0335,0203,0203,0203,0203,0203,0354,0335,0333,0333,0336,0332,0337,0201,0340,0337,0222,0331,0335,0336,0336,0201,0337,0337,0221,0336,0201,0334,0330,0330,0332,0332,0332,0332,0336,0333,0337,0337,0337,",
        "0237:0334,0304,0313,0336,0331,0337,0306,0362,0203,0335,0335,0203,0335,0335,0203,0354,0335,0335,0336,0330,0304,0312,0337,0333,0336,0313,0337,0335,",
        "0240:0331,0321,0334,0336,0362,0203,0335,0337,0203,0203,0334,0336,0203,0335,0350,0310,0335,0337,0203,0203,0335,0335,0203,0203,0335,0335,0335,0336,0203,0313,0304,0334,0203,0203,0203,0203,0335,0203,0354,0335,0337,0330,0320,",
        "0241:0306,0362,0203,0335,0335,0203,0335,0335,0203,0363,0335,0335,0304,",
        "0242:0241,0333,0336,0333,0337,0241,0336,0333,0337,0333,0241,0333,0336,0333,0337,",
        "0243:0335,0336,0336,0333,0337,0337,0334,0336,0201,0335,0201,0201,0335,0201,0335,0201,0201,0335,0336,0330,0333,0336,0330,0332,0337,0335,0337,0336,0201,0366,0333,0330,0330,0334,0350,0334,0367,0335,0304,0336,0333,0331,0337,0330,0337,0337,0335,0334,",
        "0244:0336,0336,0201,0335,0337,0201,0201,0335,0201,0335,0201,0201,0335,0336,0342,0336,0330,0333,0350,0335,0337,0366,0333,0334,0330,0334,0334,0336,0331,0367,0304,0335,0335,0366,0333,0333,0334,0333,0333,0333,0350,0334,0337,0367,0335,0304,0336,0333,0330,0337,0337,0337,",
        "0245:0336,0360,0330,0333,0333,0336,0331,0337,0361,0335,0335,0360,0331,0333,0333,0361,0335,0335,0337,",
        "0246:0336,0336,0201,0330,0341,0330,0201,0331,0331,0336,0336,0211,0211,0211,0332,0343,0335,0335,0332,0332,0343,0335,0335,0332,0210,0210,0210,0337,0337,0330,0330,0337,0337,",
        "0247:0336,0336,0336,0201,0334,0331,0337,0362,0203,0335,0203,0203,0203,0335,0203,0335,0203,0203,0203,0354,0335,0333,0336,0333,0337,0331,0337,0336,0336,0330,0337,0337,0220,0335,0336,0333,0330,0336,0330,0201,0337,0337,0337,",
        "0250:0335,0337,0331,0337,0223,",
        "01220:0333,0200,0336,0332,0337,0220,0336,0333,0337,0331,",
        "01221:0333,0200,0336,0332,0337,0221,0336,0333,0337,0331,",
        "01222:0333,0200,0336,0332,0337,0222,0336,0333,0337,0331,",
        "01223:0333,0200,0336,0332,0337,0330,0336,0331,0337,0223,0336,0333,0331,0337,",
        "01224:0333,0200,0336,0332,0337,0224,0336,0333,0337,0331,",
        "01225:0333,0200,0336,0332,0337,0336,0330,0332,0336,0330,0337,0225,0336,0333,0331,0331,0331,0337,0337,",
        "01226:0333,0200,0336,0332,0337,0226,0336,0333,0337,0331,",
        "01227:0333,0200,0336,0332,0336,0330,0337,0227,0336,0333,0337,0331,0336,0333,0331,0337,0337,",
        "01230:0333,0200,0336,0332,0337,0230,0336,0333,0337,0331,",
        "01231:0333,0200,0336,0332,0337,0231,0336,0333,0337,0331,",
        "01232:0333,0200,0332,0336,0333,0337,0232,0336,0333,0337,0331,",
        "01233:0333,0200,0336,0332,0337,0336,0233,0333,0331,0336,0331,0337,0337,",
        "01234:0333,0200,0336,0330,0332,0336,0331,0333,0332,0337,0234,0333,0331,0336,0331,0337,0337,",
        "01235:0333,0200,0336,0332,0235,0333,0331,0336,0331,0337,0337,",
        "01236:0333,0200,0336,0330,0332,0236,0333,0331,0331,0336,0336,0330,0337,0337,0337,",
        "01237:0304,0313,0333,0200,0336,0332,0336,0330,0337,0237,0336,0306,0350,0335,0335,0335,0335,0335,0337,0330,0335,0335,0335,0335,0336,0330,0335,0335,0335,0304,0313,0331,0337,0333,0337,",
        "01240:0240,0333,0333,",
        "01241:0241,0333,0333,",
        "01242:0242,0333,0333,",
        "01243:0333,0200,0332,0336,0330,0337,0243,0336,0331,0337,",
        "01244:0333,0200,0332,0336,0330,0337,0244,0336,0331,0337,",
        "01245:0333,0200,0332,0245,0333,0331,0336,0336,0330,0337,0337,",
        "01246:0333,0200,0330,0332,0336,0331,0336,0332,0337,0333,0331,0336,0333,0337,0337,0246,0336,0333,0331,0331,0337,",
        "01247:0333,0200,0336,0332,0337,0247,0336,0333,0331,0331,0337,"
    ]
}
</json>
-->
	<path d = "M41 111 L43 111 L46 111 L49 106 L52 111 L55 116 L58 111 L61 106 L64 111 L68 116 L71 111 L74 106 L77 111 L80 116 L83 111 L89 111 L91 111 " stroke = "black" stroke-width = "5" fill = "none" />    <line x1="91" y1="111" x2="91" y2="124" style="stroke:black;stroke-width:5" />
    <line x1="91" y1="124" x2="91" y2="130" style="stroke:black;stroke-width:5" />
    <line x1="91" y1="130" x2="104" y2="130" style="stroke:black;stroke-width:5" />
    <line x1="91" y1="130" x2="79" y2="130" style="stroke:black;stroke-width:5" />
    <line x1="91" y1="142" x2="79" y2="142" style="stroke:black;stroke-width:5" />
    <line x1="91" y1="142" x2="104" y2="142" style="stroke:black;stroke-width:5" />
    <line x1="91" y1="142" x2="91" y2="149" style="stroke:black;stroke-width:5" />
    <line x1="91" y1="149" x2="91" y2="161" style="stroke:black;stroke-width:5" />
    <line x1="91" y1="167" x2="91" y2="161" style="stroke:black;stroke-width:5" />
	<path d = "M91 167 L97 167 L91 174 L85 167 L91 167 " stroke = "black" stroke-width = "5" fill = "none" /><circle cx="91" cy = "111" r = "5" stroke = "black" stroke-width = "5" fill = "black" />
    <line x1="91" y1="111" x2="116" y2="111" style="stroke:black;stroke-width:5" />
	<path d = "M116 111 L118 111 L121 111 L124 106 L127 111 L130 116 L133 111 L136 106 L139 111 L143 116 L146 111 L149 106 L152 111 L155 116 L158 111 L164 111 L166 111 " stroke = "black" stroke-width = "5" fill = "none" />    <line x1="166" y1="111" x2="166" y2="124" style="stroke:black;stroke-width:5" />
    <line x1="166" y1="124" x2="166" y2="130" style="stroke:black;stroke-width:5" />
    <line x1="166" y1="130" x2="179" y2="130" style="stroke:black;stroke-width:5" />
    <line x1="166" y1="130" x2="154" y2="130" style="stroke:black;stroke-width:5" />
    <line x1="166" y1="142" x2="154" y2="142" style="stroke:black;stroke-width:5" />
    <line x1="166" y1="142" x2="179" y2="142" style="stroke:black;stroke-width:5" />
    <line x1="166" y1="142" x2="166" y2="149" style="stroke:black;stroke-width:5" />
    <line x1="166" y1="149" x2="166" y2="161" style="stroke:black;stroke-width:5" />
    <line x1="166" y1="167" x2="166" y2="161" style="stroke:black;stroke-width:5" />
	<path d = "M166 167 L172 167 L166 174 L160 167 L166 167 " stroke = "black" stroke-width = "5" fill = "none" /><circle cx="166" cy = "111" r = "5" stroke = "black" stroke-width = "5" fill = "black" />
    <line x1="166" y1="111" x2="191" y2="111" style="stroke:black;stroke-width:5" />
	<path d = "M191 111 L193 111 L196 111 L199 106 L202 111 L205 116 L208 111 L211 106 L214 111 L218 116 L221 111 L224 106 L227 111 L230 116 L233 111 L239 111 L241 111 " stroke = "black" stroke-width = "5" fill = "none" />    <line x1="241" y1="111" x2="241" y2="124" style="stroke:black;stroke-width:5" />
    <line x1="241" y1="124" x2="241" y2="130" style="stroke:black;stroke-width:5" />
    <line x1="241" y1="130" x2="254" y2="130" style="stroke:black;stroke-width:5" />
    <line x1="241" y1="130" x2="229" y2="130" style="stroke:black;stroke-width:5" />
    <line x1="241" y1="142" x2="229" y2="142" style="stroke:black;stroke-width:5" />
    <line x1="241" y1="142" x2="254" y2="142" style="stroke:black;stroke-width:5" />
    <line x1="241" y1="142" x2="241" y2="149" style="stroke:black;stroke-width:5" />
    <line x1="241" y1="149" x2="241" y2="161" style="stroke:black;stroke-width:5" />
    <line x1="241" y1="167" x2="241" y2="161" style="stroke:black;stroke-width:5" />
	<path d = "M241 167 L247 167 L241 174 L235 167 L241 167 " stroke = "black" stroke-width = "5" fill = "none" /><circle cx="241" cy = "111" r = "5" stroke = "black" stroke-width = "5" fill = "black" />
    <line x1="241" y1="111" x2="266" y2="111" style="stroke:black;stroke-width:5" />
	<path d = "M266 111 L268 111 L271 111 L274 106 L277 111 L280 116 L283 111 L286 106 L289 111 L293 116 L296 111 L299 106 L302 111 L305 116 L308 111 L314 111 L316 111 " stroke = "black" stroke-width = "5" fill = "none" />    <line x1="316" y1="111" x2="316" y2="124" style="stroke:black;stroke-width:5" />
    <line x1="316" y1="124" x2="316" y2="130" style="stroke:black;stroke-width:5" />
    <line x1="316" y1="130" x2="328" y2="130" style="stroke:black;stroke-width:5" />
    <line x1="316" y1="130" x2="303" y2="130" style="stroke:black;stroke-width:5" />
    <line x1="316" y1="142" x2="303" y2="142" style="stroke:black;stroke-width:5" />
    <line x1="316" y1="142" x2="328" y2="142" style="stroke:black;stroke-width:5" />
    <line x1="316" y1="142" x2="316" y2="149" style="stroke:black;stroke-width:5" />
    <line x1="316" y1="149" x2="316" y2="161" style="stroke:black;stroke-width:5" />
    <line x1="316" y1="167" x2="316" y2="161" style="stroke:black;stroke-width:5" />
	<path d = "M316 167 L322 167 L316 174 L310 167 L316 167 " stroke = "black" stroke-width = "5" fill = "none" /><circle cx="316" cy = "111" r = "5" stroke = "black" stroke-width = "5" fill = "black" />
    <line x1="316" y1="111" x2="341" y2="111" style="stroke:black;stroke-width:5" />
	<path d = "M341 111 L343 111 L346 111 L349 106 L352 111 L355 116 L358 111 L361 106 L364 111 L368 116 L371 111 L374 106 L377 111 L380 116 L383 111 L389 111 L391 111 " stroke = "black" stroke-width = "5" fill = "none" />    <line x1="391" y1="111" x2="391" y2="123" style="stroke:black;stroke-width:5" />
    <line x1="391" y1="123" x2="391" y2="130" style="stroke:black;stroke-width:5" />
    <line x1="391" y1="130" x2="403" y2="130" style="stroke:black;stroke-width:5" />
    <line x1="391" y1="130" x2="378" y2="130" style="stroke:black;stroke-width:5" />
    <line x1="391" y1="142" x2="378" y2="142" style="stroke:black;stroke-width:5" />
    <line x1="391" y1="142" x2="403" y2="142" style="stroke:black;stroke-width:5" />
    <line x1="391" y1="142" x2="391" y2="148" style="stroke:black;stroke-width:5" />
    <line x1="391" y1="148" x2="391" y2="161" style="stroke:black;stroke-width:5" />
    <line x1="391" y1="167" x2="391" y2="161" style="stroke:black;stroke-width:5" />
	<path d = "M391 167 L397 167 L391 173 L385 167 L391 167 " stroke = "black" stroke-width = "5" fill = "none" /><circle cx="391" cy = "111" r = "5" stroke = "black" stroke-width = "5" fill = "black" />
    <line x1="391" y1="111" x2="416" y2="111" style="stroke:black;stroke-width:5" />
	<path d = "M416 111 L418 111 L421 111 L424 106 L427 111 L430 116 L433 111 L436 106 L439 111 L443 116 L446 111 L449 106 L452 111 L455 116 L458 111 L464 111 L466 111 " stroke = "black" stroke-width = "5" fill = "none" />    <line x1="466" y1="111" x2="466" y2="123" style="stroke:black;stroke-width:5" />
    <line x1="466" y1="123" x2="466" y2="130" style="stroke:black;stroke-width:5" />
    <line x1="466" y1="130" x2="478" y2="130" style="stroke:black;stroke-width:5" />
    <line x1="466" y1="130" x2="453" y2="130" style="stroke:black;stroke-width:5" />
    <line x1="466" y1="142" x2="453" y2="142" style="stroke:black;stroke-width:5" />
    <line x1="466" y1="142" x2="478" y2="142" style="stroke:black;stroke-width:5" />
    <line x1="466" y1="142" x2="466" y2="148" style="stroke:black;stroke-width:5" />
    <line x1="466" y1="148" x2="466" y2="161" style="stroke:black;stroke-width:5" />
    <line x1="466" y1="167" x2="466" y2="161" style="stroke:black;stroke-width:5" />
	<path d = "M466 167 L472 167 L466 173 L460 167 L466 167 " stroke = "black" stroke-width = "5" fill = "none" /><circle cx="466" cy = "111" r = "5" stroke = "black" stroke-width = "5" fill = "black" />
    <line x1="466" y1="111" x2="491" y2="111" style="stroke:black;stroke-width:5" />
	<path d = "M491 111  M491,111 C499,111 503,128 495,128  M495,128 C487,128 495,111 503,111  M503,111 C512,111 516,128 508,128  M508,128 C499,128 508,111 516,111  M516,111 C524,111 528,128 520,128  M520,128 C512,128 520,111 528,111  M528,111 C537,111 541,128 533,128  M533,128 C524,128 533,111 541,111 " stroke = "black" stroke-width = "5" fill = "none" />	<path d = "M541 111  M541,111 C549,111 553,128 545,128  M545,128 C537,128 545,111 553,111  M553,111 C562,111 566,128 558,128  M558,128 C549,128 558,111 566,111  M566,111 C574,111 578,128 570,128  M570,128 C562,128 570,111 578,111  M578,111 C587,111 591,128 583,128  M583,128 C574,128 583,111 591,111 " stroke = "black" stroke-width = "5" fill = "none" />	<path d = "M591 111  M591,111 C599,111 603,128 595,128  M595,128 C587,128 595,111 603,111  M603,111 C612,111 616,128 608,128  M608,128 C599,128 608,111 616,111  M616,111 C624,111 628,128 620,128  M620,128 C612,128 620,111 628,111  M628,111 C637,111 641,128 633,128  M633,128 C624,128 633,111 641,111 " stroke = "black" stroke-width = "5" fill = "none" />    <line x1="641" y1="111" x2="653" y2="111" style="stroke:black;stroke-width:5" />
	<path d = "M653 123 L678 123 L678 98 L653 98 L653 123 Z" stroke = "black" stroke-width = "5" fill = "none" />    <line x1="666" y1="123" x2="666" y2="98" style="stroke:black;stroke-width:5" />
    <line x1="678" y1="111" x2="691" y2="111" style="stroke:black;stroke-width:5" />
    <line x1="691" y1="111" x2="703" y2="111" style="stroke:black;stroke-width:5" />
	<path d = "M703 123 L728 123 L728 98 L703 98 L703 123 Z" stroke = "black" stroke-width = "5" fill = "none" />    <line x1="716" y1="123" x2="716" y2="98" style="stroke:black;stroke-width:5" />
    <line x1="728" y1="111" x2="741" y2="111" style="stroke:black;stroke-width:5" />
    <line x1="741" y1="111" x2="753" y2="111" style="stroke:black;stroke-width:5" />
	<path d = "M753 123 L778 123 L778 98 L753 98 L753 123 Z" stroke = "black" stroke-width = "5" fill = "none" />    <line x1="766" y1="123" x2="766" y2="98" style="stroke:black;stroke-width:5" />
    <line x1="778" y1="111" x2="791" y2="111" style="stroke:black;stroke-width:5" />
</svg>