<svg width="1328" height="50" viewbox = "0 0 1328 50"  xmlns="http://www.w3.org/2000/svg">

<!--
<json>
{
    "svgwidth": 1328,
    "svgheight": 50,
    "unit": 100,
    "x0": 672,
    "y0": 424,
    "x0rel": -12,
    "y0rel": 25,
    "glyph": "0332,0332,0332,0332,0332,0332,0332,0226,0226,0226,0226,0226,0226,0226,0226,0226,0226,0226,0226,0226,0226,",
    "table": [
        "0220:0321,0332,0362,0203,0336,0333,0350,0334,0345,0335,0330,0335,0335,0203,0203,0334,0334,0331,0335,0345,0335,0330,0335,0335,0203,0203,0335,0333,0334,0334,0345,0335,0330,0335,0335,0203,0203,0335,0333,0334,0334,0345,0333,0364,0335,0337,0331,0304,0335,",
        "0221:0321,0336,0333,0337,0200,0336,0330,0332,0200,0336,0200,0331,0331,0337,0337,",
        "0222:0336,0336,0336,0347,0321,0337,0330,0306,0350,0334,0366,0335,0337,0330,0336,0330,0334,0334,0334,0334,0334,0334,0334,0367,0335,0330,0330,0330,0330,0334,0334,0334,0334,0330,0334,0366,0335,0330,0330,0330,0335,0335,0335,0335,0335,0367,0335,0330,0330,0330,0330,0334,0334,0334,0334,0330,0334,0366,0335,0330,0330,0330,0335,0335,0335,0335,0335,0367,0335,0330,0330,0330,0330,0334,0334,0334,0334,0330,0334,0366,0335,0330,0330,0330,0334,0334,0334,0334,0334,0334,0334,0367,0335,0330,0330,0330,0330,0334,0334,0334,0334,0330,0334,0366,0335,0330,0330,0330,0334,0334,0334,0334,0334,0334,0334,0367,0335,0330,0330,0330,0330,0334,0334,0334,0334,0330,0334,0366,0335,0330,0330,0330,0334,0335,0335,0335,0335,0335,0335,0367,0335,0330,0330,0330,0330,0334,0334,0334,0334,0304,0337,0337,",
        "0223:0336,0333,0334,0337,0321,0306,0362,0203,0335,0335,0203,0335,0335,0203,0354,0335,0335,0320,0336,0330,0335,0335,0362,0203,0334,0334,0203,0334,0334,0203,0354,0335,0335,0304,0335,0337,",
        "0224:0334,0336,0336,0362,0203,0335,0203,0203,0334,0203,0335,0350,0335,0310,0337,0203,0203,0335,0335,0203,0203,0335,0335,0335,0336,0203,0334,0334,0203,0203,0335,0335,0203,0363,0304,0335,0313,0337,0337,",
        "0225:0334,0336,0350,0310,0362,0203,0335,0335,0335,0337,0203,0335,0335,0203,0335,0335,0335,0336,0203,0363,0313,0304,0335,0337,",
        "0226:0320,0336,0350,0310,0362,0203,0335,0335,0203,0335,0335,0335,0337,0203,0363,0324,0334,0334,0334,0336,0362,0203,0334,0337,0203,0334,0334,0334,0336,0203,0334,0337,0203,0363,0335,0336,0331,0320,0335,0335,0335,0337,0362,0203,0335,0335,0335,0336,0203,0335,0335,0203,0363,0331,0335,0335,0313,0337,0304,",
        "0227:0220,0336,0332,0336,0336,0332,0332,0331,0337,0337,0226,0226,0226,0330,0330,0332,0332,0332,0226,0226,0226,0331,0332,0332,0332,0335,0336,0332,0336,0333,0337,0337,0225,0336,0336,0330,0337,0337,0330,0225,0330,0336,0336,0330,0337,0337,0225,0334,0331,0332,0337,",
        "0230:0220,0211,0211,0211,0223,0210,0210,0210,",
        "0231:0220,0336,0336,0336,0330,0332,0332,0330,0337,0337,0333,0337,0200,0336,0330,0335,0224,0335,0333,0330,0224,0335,0335,0336,0333,0331,0337,0337,",
        "0232:0321,0336,0336,0330,0331,0337,0362,0203,0336,0203,0364,0331,0331,0331,0330,0330,0366,0331,0331,0335,0335,0331,0331,0331,0333,0367,0335,0335,0333,0331,0366,0330,0335,0335,0332,0367,0335,0335,0331,0331,0332,0366,0330,0330,0333,0336,0333,0335,0335,0337,0367,0335,0335,0331,0331,0332,0332,0336,0333,0337,0366,0330,0330,0332,0336,0332,0335,0335,0337,0367,0335,0335,0333,0331,0331,0336,0333,0337,0331,0366,0335,0335,0331,0331,0332,0336,0332,0337,0367,0335,0335,0331,0331,0332,0332,0336,0333,0337,0366,0330,0330,0332,0332,0336,0333,0335,0335,0337,0367,0335,0335,0333,0333,0336,0332,0337,0331,0336,0337,0331,0337,0320,0337,",
        "0233:0321,0304,0313,0332,0362,0203,0335,0203,0203,0335,0203,0335,0203,0203,0354,0335,0333,0336,0330,0210,0341,0336,0341,0337,0211,0332,0336,0330,0332,0336,0341,0337,0333,0333,0333,0330,0332,0332,0350,0335,0310,0337,0362,0203,0335,0336,0203,0203,0335,0337,0203,0364,0334,0334,0334,0336,0313,0304,0337,0332,0331,0331,0337,0320,",
        "0234:0320,0336,0331,0336,0330,0330,0304,0350,0334,0304,0313,0337,0350,0334,0310,0336,0362,0203,0335,0335,0335,0336,0203,0335,0335,0203,0363,0334,0334,0334,0337,0362,0203,0335,0335,0335,0336,0203,0335,0335,0203,0363,0334,0334,0334,0337,0362,0203,0335,0335,0335,0336,0203,0335,0335,0203,0363,0334,0334,0362,0203,0334,0334,0203,0334,0334,0334,0337,0203,0363,0330,0335,0335,0336,0333,0335,0335,0335,0335,0337,0313,0304,0305,0311,0335,0337,0362,0203,0334,0334,0350,0350,0334,0203,0363,0331,0335,0342,0334,0334,0330,0335,0335,0335,0335,0335,0335,0336,0313,0304,0334,0305,0311,0334,0337,0201,0335,0335,0362,0203,0335,0350,0335,0336,0304,0313,0350,0334,0310,0336,0203,0363,0334,0334,0362,0203,0334,0334,0334,0310,0337,0311,0305,0335,0337,0203,0363,0334,0334,0342,0350,0334,0330,0335,0335,0335,0336,0310,0304,0350,0336,0334,0330,0334,0334,0362,0203,0334,0334,0334,0337,0311,0305,0335,0337,0203,0363,0334,0334,0342,0350,0330,0334,0334,0334,0336,0310,0304,0350,0336,0333,0337,0337,0304,0313,0337,",
        "0235:0336,0336,0331,0333,0337,0321,0200,0336,0336,0331,0337,0362,0203,0203,0203,0364,0335,0335,0332,0362,0203,0203,0203,0364,0335,0335,0332,0332,0332,0362,0203,0203,0203,0364,0335,0335,0333,0362,0203,0203,0203,0364,0334,0336,0331,0337,0337,0342,0332,0336,0332,0337,0342,0330,0330,0336,0331,0337,0342,0333,0333,0336,0332,0337,0342,0334,0330,0336,0333,0330,0342,0335,0335,0330,0330,0330,0342,0333,0333,0333,0342,0331,0331,0331,0335,0335,0342,0333,0331,0331,0336,0330,0333,0337,0337,0337,0320,",
        "0236:0321,0336,0336,0362,0203,0203,0203,0334,0203,0203,0334,0203,0203,0203,0334,0203,0203,0354,0334,0330,0330,0330,0332,0336,0333,0337,0336,0362,0203,0334,0203,0203,0203,0203,0334,0203,0203,0203,0203,0203,0203,0334,0203,0364,0335,0335,0330,0333,0362,0203,0335,0203,0203,0203,0203,0203,0203,0335,0203,0203,0203,0203,0335,0203,0364,0335,0335,0333,0333,0331,0337,0337,0331,0336,0331,0337,0337,0320,",
        "0237:0321,0200,0336,0330,0336,0330,0334,0362,0203,0203,0203,0334,0203,0203,0203,0364,0335,0335,0330,0335,0362,0203,0203,0334,0203,0203,0364,0331,0332,0200,0333,0333,0331,0331,0337,0337,",
        "0240:0331,0321,0334,0336,0362,0203,0335,0337,0203,0203,0334,0336,0203,0335,0350,0310,0335,0337,0203,0203,0335,0335,0203,0203,0335,0335,0335,0336,0203,0313,0304,0334,0203,0203,0203,0203,0335,0203,0354,0335,0337,0330,0320,",
        "0241:0220,0336,0330,0337,0235,",
        "0242:0220,0336,0333,0336,0333,0331,0332,0337,0337,0211,0211,0211,0236,0210,0210,0210,0336,0332,0336,0330,0337,0337,",
        "0243:0220,0330,0336,0333,0331,0336,0331,0333,0337,0336,0330,0332,0337,0234,0336,0336,0332,0337,0337,0336,0333,0331,0337,0336,0332,0330,0337,0332,0332,0332,0333,0336,0331,0333,0337,0237,0335,0336,0332,0336,0330,0337,0224,0334,0331,0331,0333,0336,0337,0337,0337,0320,",
        "0244:0341,",
        "0245:0341,",
        "0246:0341,",
        "0247:0341,",
        "0250:0341,",
        "01220:0333,0200,0336,0332,0336,0336,0330,0330,0330,0337,0337,0210,0210,0210,0220,0211,0211,0211,0333,0336,0331,0336,0331,0337,0337,0337,0320,",
        "01221:0333,0200,0336,0330,0332,0336,0331,0337,0221,0333,0336,0331,0337,0337,0320,",
        "01222:0333,0200,0336,0332,0330,0222,0333,0331,0337,0320,",
        "01223:0333,0200,0336,0332,0336,0330,0337,0337,0210,0210,0223,0211,0211,0336,0336,0331,0337,0333,0337,",
        "01224:0333,0200,0336,0332,0330,0336,0331,0337,0224,0333,0336,0331,0337,0337,",
        "01225:0333,0200,0336,0332,0330,0225,0333,0331,0337,",
        "01226:0333,0200,0336,0330,0332,0332,0226,0226,0331,0337,",
        "01227:0333,0200,0336,0336,0330,0337,0332,0210,0227,0211,0331,0333,0337,0336,0336,0330,0337,0337,",
        "01230:0333,0200,0336,0330,0332,0336,0331,0337,0210,0210,0230,0211,0211,0331,0304,0333,0337,0336,0336,0330,0337,0337,",
        "01231:0333,0200,0332,0336,0330,0336,0331,0337,0333,0210,0210,0231,0211,0211,0333,0331,0336,0330,0337,0337,0320,",
        "01232:0333,0200,0336,0332,0330,0332,0333,0336,0331,0337,0210,0232,0211,0333,0336,0331,0337,0337,",
        "01233:0333,0200,0336,0332,0337,0336,0332,0336,0336,0333,0330,0337,0337,0210,0210,0233,0211,0211,0313,0336,0336,0332,0332,0333,0331,0337,0337,0337,0333,",
        "01234:0333,0200,0336,0234,0337,",
        "01235:0333,0200,0336,0332,0336,0330,0332,0235,0333,0333,0333,0336,0336,0331,0331,0331,0331,0337,0337,0337,0337,",
        "01236:0333,0200,0336,0330,0330,0332,0336,0331,0337,0236,0333,0331,0331,0336,0330,0337,0337,",
        "01237:0333,0200,0336,0330,0332,0237,0333,0331,0337,",
        "01240:0333,0200,0336,0336,0332,0332,0240,0333,0333,0337,0337,",
        "01241:0333,0200,0336,0332,0241,0333,0337,",
        "01242:0333,0200,0336,0332,0332,0336,0330,0330,0242,0336,0331,0331,0331,0331,0332,0337,0337,0337,",
        "01243:0333,0200,0336,0332,0332,0243,0337,",
        "01244:0333,0200,0332,0336,0330,0336,0336,0243,0243,0243,0243,0331,0331,0331,0331,0337,0337,0337,",
        "01245:0333,0200,0336,0332,0336,0331,0337,0245,0333,0336,0330,0337,0337,",
        "01246:0333,0200,0330,0332,0336,0331,0336,0332,0337,0246,0333,0333,0336,0333,0331,0331,0337,0337,",
        "01247:0333,0200,0336,0330,0332,0337,0247,0336,0333,0331,0337,"
    ]
}
</json>
-->
	<path d = "M-48 50 L-48 0 L2 0 L-48 50 Z" stroke = "black" stroke-width = "1" fill = "black" />	<path d = "M-48 50 L2 50 L52 0 L2 0 L-48 50 Z" stroke = "yellow" stroke-width = "1" fill = "yellow" />	<path d = "M2 50 L52 0 L52 50 L2 50 Z" stroke = "black" stroke-width = "1" fill = "black" />	<path d = "M52 50 L52 0 L102 0 L52 50 Z" stroke = "black" stroke-width = "1" fill = "black" />	<path d = "M52 50 L102 50 L152 0 L102 0 L52 50 Z" stroke = "yellow" stroke-width = "1" fill = "yellow" />	<path d = "M102 50 L152 0 L152 50 L102 50 Z" stroke = "black" stroke-width = "1" fill = "black" />	<path d = "M152 50 L152 0 L202 0 L152 50 Z" stroke = "black" stroke-width = "1" fill = "black" />	<path d = "M152 50 L202 50 L252 0 L202 0 L152 50 Z" stroke = "yellow" stroke-width = "1" fill = "yellow" />	<path d = "M202 50 L252 0 L252 50 L202 50 Z" stroke = "black" stroke-width = "1" fill = "black" />	<path d = "M252 50 L252 0 L302 0 L252 50 Z" stroke = "black" stroke-width = "1" fill = "black" />	<path d = "M252 50 L302 50 L352 0 L302 0 L252 50 Z" stroke = "yellow" stroke-width = "1" fill = "yellow" />	<path d = "M302 50 L352 0 L352 50 L302 50 Z" stroke = "black" stroke-width = "1" fill = "black" />	<path d = "M352 50 L352 0 L402 0 L352 50 Z" stroke = "black" stroke-width = "1" fill = "black" />	<path d = "M352 50 L402 50 L452 0 L402 0 L352 50 Z" stroke = "yellow" stroke-width = "1" fill = "yellow" />	<path d = "M402 50 L452 0 L452 50 L402 50 Z" stroke = "black" stroke-width = "1" fill = "black" />	<path d = "M452 50 L452 0 L502 0 L452 50 Z" stroke = "black" stroke-width = "1" fill = "black" />	<path d = "M452 50 L502 50 L552 0 L502 0 L452 50 Z" stroke = "yellow" stroke-width = "1" fill = "yellow" />	<path d = "M502 50 L552 0 L552 50 L502 50 Z" stroke = "black" stroke-width = "1" fill = "black" />	<path d = "M552 50 L552 0 L602 0 L552 50 Z" stroke = "black" stroke-width = "1" fill = "black" />	<path d = "M552 50 L602 50 L652 0 L602 0 L552 50 Z" stroke = "yellow" stroke-width = "1" fill = "yellow" />	<path d = "M602 50 L652 0 L652 50 L602 50 Z" stroke = "black" stroke-width = "1" fill = "black" />	<path d = "M652 50 L652 0 L702 0 L652 50 Z" stroke = "black" stroke-width = "1" fill = "black" />	<path d = "M652 50 L702 50 L752 0 L702 0 L652 50 Z" stroke = "yellow" stroke-width = "1" fill = "yellow" />	<path d = "M702 50 L752 0 L752 50 L702 50 Z" stroke = "black" stroke-width = "1" fill = "black" />	<path d = "M752 50 L752 0 L802 0 L752 50 Z" stroke = "black" stroke-width = "1" fill = "black" />	<path d = "M752 50 L802 50 L852 0 L802 0 L752 50 Z" stroke = "yellow" stroke-width = "1" fill = "yellow" />	<path d = "M802 50 L852 0 L852 50 L802 50 Z" stroke = "black" stroke-width = "1" fill = "black" />	<path d = "M852 50 L852 0 L902 0 L852 50 Z" stroke = "black" stroke-width = "1" fill = "black" />	<path d = "M852 50 L902 50 L952 0 L902 0 L852 50 Z" stroke = "yellow" stroke-width = "1" fill = "yellow" />	<path d = "M902 50 L952 0 L952 50 L902 50 Z" stroke = "black" stroke-width = "1" fill = "black" />	<path d = "M952 50 L952 0 L1002 0 L952 50 Z" stroke = "black" stroke-width = "1" fill = "black" />	<path d = "M952 50 L1002 50 L1052 0 L1002 0 L952 50 Z" stroke = "yellow" stroke-width = "1" fill = "yellow" />	<path d = "M1002 50 L1052 0 L1052 50 L1002 50 Z" stroke = "black" stroke-width = "1" fill = "black" />	<path d = "M1052 50 L1052 0 L1102 0 L1052 50 Z" stroke = "black" stroke-width = "1" fill = "black" />	<path d = "M1052 50 L1102 50 L1152 0 L1102 0 L1052 50 Z" stroke = "yellow" stroke-width = "1" fill = "yellow" />	<path d = "M1102 50 L1152 0 L1152 50 L1102 50 Z" stroke = "black" stroke-width = "1" fill = "black" />	<path d = "M1152 50 L1152 0 L1202 0 L1152 50 Z" stroke = "black" stroke-width = "1" fill = "black" />	<path d = "M1152 50 L1202 50 L1252 0 L1202 0 L1152 50 Z" stroke = "yellow" stroke-width = "1" fill = "yellow" />	<path d = "M1202 50 L1252 0 L1252 50 L1202 50 Z" stroke = "black" stroke-width = "1" fill = "black" />	<path d = "M1252 50 L1252 0 L1302 0 L1252 50 Z" stroke = "black" stroke-width = "1" fill = "black" />	<path d = "M1252 50 L1302 50 L1352 0 L1302 0 L1252 50 Z" stroke = "yellow" stroke-width = "1" fill = "yellow" />	<path d = "M1302 50 L1352 0 L1352 50 L1302 50 Z" stroke = "black" stroke-width = "1" fill = "black" /></svg>