<svg width="400" height="400" viewbox = "0 0 400 400"  xmlns="http://www.w3.org/2000/svg">

<!--
<topfunctions>






function YofX(){
//foobar foobar
    X = plotparams.g*(x - plotparams.x0) - funcparams.X0;

    Y = Math.sin(X);

    y = plotparams.y0 - plotparams.G*(Y - funcparams.Y0);
}





function plotfunction(){
    
    /*plot one function:*/
    currentStroke = "blue";
    currentLineWidth = 4;
    ctx.strokeStyle = currentStroke;
    ctx.lineWidth = currentLineWidth;
    ctx.beginPath();	
    x = 0;
    intx = x;
    YofX();
    currentSVG += "	<path d = \"M";
    currentSVG += Math.round(x).toString() + " ";
    currentSVG += Math.round(y).toString() + " ";
    for(x = 1;x < plotparams.plotwidth;x++){
        ctx.moveTo(x-1,y);
        YofX();
        ctx.lineTo(x,y);
        currentSVG += "L" + x + " " + y + " ";
    }
    ctx.stroke();
    currentSVG += "\""+ " stroke = \"" + currentStroke + "\" stroke-width = \"" + currentLineWidth.toString() + "\" fill = \"" + "none" + "\" "+"/>";
    /*finish plot one function*/
    
    

}





























</topfunctions>
-->

<!--
<imgurl>

</imgurl>
-->

<!--
<currentjson>
{
    "constants": {},
    "imgurl": "",
    "plotparams": {
        "G": 100,
        "g": 0.047362440744766865,
        "duration": 450.78888054094654,
        "plotwidth": 400,
        "plotheight": 400,
        "x0": 0,
        "y0": 200.00000000000003
    },
    "funcparams": {
        "phi": 0.2688139066614501,
        "T": 1.4465183912692552,
        "X0": 0,
        "Y0": 0
    }
}
</currentjson>
-->

<!--
<equation>
<h2>Sine</h2>
<p style="color:blue">

</p><p class="bigeq">
$$
Y = \sin{X}
$$
</p>
<p></p>

$$
X = g(x - x_0) - X_0
$$
$$
Y = f(X)
$$
    
$$
y = y_0 - G(Y - Y_0)
$$


<p>
    X and Y, and $X_0$ and $Y_0$ in physical units of the System. x and y and x0 and y0 in pixels.  G is in pixels per Y unit and g is in X units per pixel. 
</p>






</equation>
-->
	<path d = "M0 200 L1 195.2655264513403 L2 190.54167129234642 L3 185.8390290979565 L4 181.16814686706408 L5 176.53950036790425 L6 171.96347064319463 L7 167.4503207277246 L8 163.01017263061104 L9 158.6529846338435 L10 154.38852895803353 L11 150.22636984545923 L12 146.17584210955965 L13 142.2460301989879 L14 138.44574782317784 L15 134.78351818511956 L16 131.26755486567765 L17 127.90574340232384 L18 124.70562360359946 L19 121.67437263897253 L20 118.81878894201472 L21 116.14527696300046 L22 113.65983280512427 L23 111.36803077655156 L24 109.2750108884634 L25 107.38546732713446 L26 105.70363792589907 L27 104.2332946606169 L28 102.97773518995541 L29 101.93977545946187 L30 101.12174338601291 L31 100.5254736368056 L32 100.1523035145998 L33 100.00306995844024 L34 100.0781076665852 L35 100.3772483458514 L36 100.89982108905882 L37 101.64465387972892 L38 102.61007622066155 L39 103.79392288049515 L40 105.19353874984749 L41 106.80578479614599 L42 108.6270451037918 L43 110.65323498386846 L44 112.87981013520653 L45 115.30177683625823 L46 117.91370314492373 L47 120.70973108121031 L48 123.68358976540159 L49 126.82860948227041 L50 130.13773663979273 L51 133.60354958881345 L52 137.2182752681836 L53 140.97380663803813 L54 144.861720862115 L55 148.87329819833627 L56 152.99954155528457 L57 157.2311966707129 L58 161.55877286683304 L59 165.97256433583198 L60 170.462671907878 L61 175.01902525279564 L62 179.63140546561604 L63 184.28946798534756 L64 188.98276579556614 L65 193.70077285479005 L66 198.43290770409118 L67 203.16855719899536 L68 207.89710031244616 L69 212.60793195544807 L70 217.29048676196373 L71 221.93426278472137 L72 226.5288450487879 L73 231.0639289100819 L74 235.52934316643865 L75 239.9150728693943 L76 244.21128178552672 L77 248.40833445697797 L78 252.49681781168096 L79 256.4675622748229 L80 260.31166233419873 L81 264.0204965133282 L82 267.58574670754456 L83 270.9994168396853 L84 274.25385079354635 L85 277.34174958487773 L86 280.2561877314101 L87 282.9906287851986 L88 285.5389399924475 L89 287.89540604793615 L90 290.0547419132006 L91 292.0121046697196 L92 293.7631043805229 L93 295.3038139358605 L94 296.6307778608516 L95 297.7410200653602 L96 298.63205051871444 L97 299.30187083430155 L98 299.7489787515125 L99 299.972371504984 L100 299.97154807358237 L101 299.7465103040843 L102 299.29776290703506 L103 298.6263123247929 L104 297.73366447429873 L105 296.6218213696337 L106 295.29327663193897 L107 293.75100989676804 L108 291.9984801314157 L109 290.03961787721005 L110 287.87881643416705 L111 285.52092200777855 L112 282.97122284003257 L113 280.23543734904155 L114 277.31970130388027 L115 274.2305540633967 L116 270.9749239098587 L117 267.5601125103307 L118 263.9937785406304 L119 260.2839205085917 L120 256.43885881515973 L121 252.46721709354983 L122 248.37790286832185 L123 244.18008757774948 L124 239.88318600428784 L125 235.49683515927407 L126 231.03087266921608 L127 226.49531471214615 L128 221.9003335535223 L129 217.25623473205923 L130 212.57343394665693 L131 207.8624336962642 L132 203.13379972506783 L133 198.39813732583738 L134 193.666067554571 L135 188.94820340978694 L136 184.25512602988755 L137 179.59736096197727 L138 174.98535455536106 L139 170.42945053266467 L140 165.93986679112547 L141 161.52667248608165 L142 157.19976544805655 L143 152.96884998408774 L144 148.84341511308702 L145 144.8327132840439 L146 140.94573962480447 L147 137.19121176796534 L148 133.57755029912812 L149 130.11285987136606 L150 126.80491102825832 L151 123.66112277625824 L152 120.68854594548316 L153 117.89384737624319 L154 115.28329496677489 L155 112.86274361571526 L156 110.63762209084335 L157 108.61292085354046 L158 106.7931808662755 L159 105.1824834082185 L160 103.78444092182333 L161 102.60218891090835 L162 101.63837890840668 L163 100.89517252955713 L164 100.37423662387349 L165 100.07673953676539 L166 100.00334848919476 L167 100.15422808124502 L168 100.5290399229591 L169 101.12694339327406 L170 101.94659752535065 L171 102.98616401406866 L172 104.24331133894387 L173 105.71521999321894 L174 107.39858880740097 L175 109.2896423530634 L176 111.38413941030711 L177 113.67738247988957 L178 116.16422831868968 L179 118.83909947487803 L180 121.69599679692261 L181 124.72851288837505 L182 127.92984647826057 L183 131.29281767484298 L184 134.80988406855244 L185 138.47315764796275 L186 142.27442249087704 L187 146.20515319084618 L188 150.2565339777924 L189 154.41947848985566 L190 158.68465015211717 L191 163.04248311649786 L192 167.48320371586468 L193 171.99685238423064 L194 176.57330599388516 L195 181.20230055935744 L196 185.87345425729345 L197 190.5762907106164 L198 195.30026248475264 L199 200.0347747432218 L200 204.7692090095403 L201 209.49294698214408 L202 214.19539434891863 L203 218.86600454792585 L204 223.4943024210389 L205 228.0699077074322 L206 232.5825583242388 L207 237.02213338215952 L208 241.37867588440665 L209 245.6424150580719 L210 249.80378826783456 L211 253.8534624628641 L212 257.782355108813 L213 261.5816545579572 L214 265.2428398117963 L215 268.7576996317913 L216 272.11835095537856 L217 275.3172565759568 L218 278.3472420471942 L219 281.20151177374436 L220 283.8736642522813 L221 286.35770642867317 L222 288.6480671390924 L223 290.7396096049198 L224 292.62764295341594 L225 294.307932738324 L226 295.7767104368071 L227 297.0306819014222 L228 298.06703474817266 L229 298.8834446640708 L230 299.47808062006453 L231 299.8496089776353 L232 299.99719647985756 L233 299.92051212021244 L234 299.6197278849627 L235 299.09551836742537 L236 298.34905925500607 L237 297.3820246923893 L238 296.19658352679767 L239 294.7953944437413 L240 293.18160000416736 L241 291.35881959638255 L242 289.33114131855586 L243 287.10311281000753 L244 284.679731051848 L245 282.0664311598411 L246 279.2690741946268 L247 276.29393401664277 L248 273.1476832152271 L249 269.8373781434573 L250 266.3704430922927 L251 262.75465363951224 L252 258.9981192107923 L253 255.1092648920366 L254 251.09681253375032 L255 246.96976118983406 L256 242.73736693467296 L257 238.40912210378417 L258 233.9947340045824 L259 229.50410314501056 L260 224.94730102886342 L261 220.33454756760614 L262 215.67618815934478 L263 210.98267048635958 L264 206.26452108323633 L265 201.5323217281494 L266 196.79668571024524 L267 192.06823402635462 L268 187.35757156041635 L269 182.67526329904064 L270 178.03181063655234 L271 173.4376278226581 L272 168.90301860555994 L273 164.43815312289914 L274 160.05304509236043 L275 155.75752935309035 L276 151.5612398083026 L277 147.47358781853796 L278 143.5037410940392 L279 139.66060313357985 L280 135.95279325586256 L281 132.38862726826983 L282 128.9760988163255 L283 125.72286145569451 L284 122.63621148692972 L285 119.72307159146413 L286 116.98997530554928 L287 114.44305236696056 L288 112.08801496733511 L289 109.93014494097403 L290 107.97428191884215 L291 106.22481247433326 L292 104.68566028514438 L293 103.36027733332433 L294 102.25163616323182 L295 101.36222321476832 L296 100.69403324683648 L297 100.24856486353188 L298 100.0268171531014 L299 100.0292874472067 L300 100.25597020551785 L301 100.70635702813918 L302 101.37943779583907 L303 102.27370293552674 L304 103.3871468058949 L305 104.71727219563469 L306 106.26109592413535 L307 108.01515553210628 L308 109.97551704711671 L309 112.13778380663626 L310 114.49710631878835 L311 117.0481931387009 L312 119.78532273606059 L313 122.70235632725573 L314 125.79275164332626 L315 129.04957760284347 L316 132.4655298568113 L317 136.0329471707251 L318 139.7438286070463 L319 143.58985146955757 L320 147.56238996935164 L321 151.65253457059092 L322 155.85111197264987 L323 160.14870568382366 L324 164.53567714046187 L325 169.00218732415993 L326 173.53821882852847 L327 178.13359832604647 L328 182.77801938461212 L329 187.4610655826179 L330 192.1722338707085 L331 196.90095812782488 L332 201.63663285870592 L333 206.36863697969656 L334 211.08635763951753 L335 215.77921402157205 L336 220.43668107440536 L337 225.04831311709563 L338 229.6037672666329 L339 234.09282663474752 L340 238.5054232421566 L341 242.83166059884127 L342 247.06183589971306 L343 251.18646178588452 L344 255.1962876227422 L345 259.08232024709906 L346 262.8358441368942 L347 266.4484409582046 L348 269.91200844572893 L349 273.2187785743975 L350 276.361334981356 L351 279.33262959924616 L352 282.12599846348166 L353 284.73517665806315 L354 287.15431236641757 L355 289.37797999574315 L356 291.4011923454286 L357 293.21941179225473 L358 294.8285604672913 L359 296.22502940166646 L360 297.40568662069506 L361 298.3678841682139 L362 299.1094640453682 L363 299.62876305053226 L364 299.92461650950645 L365 299.99636088762765 L366 299.84383527793227 L367 299.4673817620353 L368 298.8678446429161 L369 298.0465685513313 L370 297.0053954301018 L371 295.74666040303754 L372 294.27318653776496 L373 292.5882785142032 L374 290.69571521288907 L375 288.5997412397739 L376 286.30505740649966 L377 283.81681018750555 L378 281.14058017761056 L379 278.2823695759588 L380 275.2485887243978 L381 272.0460417304829 L382 268.6819112073504 L383 265.1637421646862 L384 261.4994250869172 L385 257.697178236579 L386 253.76552922254905 L387 249.71329587448267 L388 245.54956646634844 L389 241.2836793334152 L390 236.92520192840664 L391 232.4839093637949 L392 227.96976248836074 L393 223.392885547184 L394 218.76354347517554 L395 214.0921188750709 L396 209.38908873152076 L397 204.66500091350395 L398 199.93045051776178 L399 195.1960561063114 " stroke = "blue" stroke-width = "4" fill = "none" /></svg>