<svg width="400" height="400" viewbox = "0 0 400 400"  xmlns="http://www.w3.org/2000/svg">

<!--
<topfunctions>






function YofX(){
//foobar foobar
    X = plotparams.g*(x - plotparams.x0) - funcparams.X0;

    Y = Math.sin(X);

    y = plotparams.y0 - plotparams.G*(Y - funcparams.Y0);
}





function plotfunction(){
    
    /*plot one function:*/
    currentStroke = "blue";
    currentLineWidth = 4;
    ctx.strokeStyle = currentStroke;
    ctx.lineWidth = currentLineWidth;
    ctx.beginPath();	
    x = 0;
    intx = x;
    YofX();
    currentSVG += "	<path d = \"M";
    currentSVG += Math.round(x).toString() + " ";
    currentSVG += Math.round(y).toString() + " ";
    for(x = 1;x < plotparams.plotwidth;x++){
        ctx.moveTo(x-1,y);
        YofX();
        ctx.lineTo(x,y);
        currentSVG += "L" + x + " " + y + " ";
    }
    ctx.stroke();
    currentSVG += "\""+ " stroke = \"" + currentStroke + "\" stroke-width = \"" + currentLineWidth.toString() + "\" fill = \"" + "none" + "\" "+"/>";
    /*finish plot one function*/
    
    

}





























</topfunctions>
-->

<!--
<imgurl>

</imgurl>
-->

<!--
<currentjson>
{
    "constants": {},
    "imgurl": "",
    "plotparams": {
        "G": 72.89048368510326,
        "g": 0.14864362802414338,
        "duration": 450.78888054094654,
        "plotwidth": 400,
        "plotheight": 400,
        "x0": 0,
        "y0": 200.00000000000003
    },
    "funcparams": {
        "phi": 0.2688139066614501,
        "T": 1.4465183912692552,
        "X0": 0,
        "Y0": 0
    }
}
</currentjson>
-->

<!--
<equation>
<h2>Sine</h2>
<p style="color:blue">

</p><p class="bigeq">
$$
Y = \sin{X}
$$
</p>
<p></p>

$$
X = g(x - x_0) - X_0
$$
$$
Y = f(X)
$$
    
$$
y = y_0 - G(Y - Y_0)
$$


<p>
    X and Y, and $X_0$ and $Y_0$ in physical units of the System. x and y and x0 and y0 in pixels.  G is in pixels per Y unit and g is in X units per pixel. 
</p>






</equation>
-->
	<path d = "M0 200 L1 189.20514867676968 L2 178.6483699834449 L3 168.5624860304555 L4 159.1699336856852 L5 150.67785889040636 L6 143.2735482055293 L7 137.12029834210676 L8 132.3538147706067 L9 129.079218835019 L10 127.36872937772692 L11 127.26007000522861 L12 128.7556371213095 L13 131.82244707609203 L14 136.39286359655188 L15 142.36608945554724 L16 149.61038948168104 L17 157.96599588312327 L18 167.2486318105795 L19 177.25357544977606 L20 187.76017501284502 L21 198.536715053742 L22 209.34552678463504 L23 219.9482296889357 L24 230.11098883099248 L25 239.60967191628836 L26 248.23479236691293 L27 255.79612939635902 L28 262.1269231912396 L29 267.0875526782294 L30 270.568614765744 L31 272.49333714991155 L32 272.8192714721473 L33 271.5392294869677 L34 268.6814415935395 L35 264.3089342346666 L36 258.5181398942284 L37 251.43677034857012 L38 243.22100007574483 L39 234.0520219404789 L40 224.13205111673332 L41 213.6798653784561 L42 202.92598011418397 L43 192.10756447705384 L44 181.46321079085257 L45 171.22767256906894 L46 161.62668719612762 L47 152.87199745282106 L48 145.1566816825915 L49 138.6508955884655 L50 133.49811957222477 L51 129.8119943780323 L52 127.67381482810154 L53 127.1307369242541 L54 128.19473785644294 L55 130.84235185450012 L56 135.0151877087074 L57 140.62121654564834 L58 147.53680145837765 L59 155.6094242288848 L60 164.66104900696104 L61 174.4920487619681 L62 184.8856079124596 L63 195.61250403684366 L64 206.43616320792196 L65 217.11787745956318 L66 227.42206931805873 L67 237.1214872927348 L68 246.0022177430382 L69 253.86840258899377 L70 260.5465588193467 L71 265.88940453376574 L72 269.77910713851486 L73 272.12988205899126 L74 272.8898846564059 L75 272.0423536237539 L76 269.6059806443043 L77 265.63449816005925 L78 260.2154943416509 L79 253.46848139465664 L80 245.5422598044373 L81 236.61163664917274 L82 226.8735703563211 L83 216.54282692710964 L84 205.8472434278796 L85 195.022703208553 L86 184.30793366614245 L87 173.93924128486108 L88 164.14530006771065 L89 155.14210829691746 L90 147.12822484821203 L91 140.28039011859116 L92 134.74962814483155 L93 130.6579158777081 L94 128.09549306866165 L95 127.11887209741978 L96 127.74959163237928 L97 129.97374161087004 L98 133.74227001551566 L99 138.97206468096016 L100 145.54778627249797 L101 153.32441201158886 L102 162.13043404823452 L103 171.77164194243034 L104 182.03540583480094 L105 192.69536584419353 L106 203.5164242709611 L107 214.25993050650504 L108 224.68894429965206 L109 234.57346130233734 L110 243.6954856489661 L111 251.85383769738885 L112 258.8685909002447 L113 264.58503995468726 L114 268.8771127158244 L115 271.65015062659074 L116 272.8429963436867 L117 272.42934251850346 L118 270.4183119866488 L119 266.8542565704131 L120 261.81577893144157 L121 255.4139990459447 L122 247.79010353407875 L123 239.11223189126483 L124 229.57176829335927 L125 219.3791207572269 L126 208.7590807442751 L127 197.9458655475341 L128 187.17795279884314 L129 176.69282101735115 L130 166.72171219272357 L131 157.48453191049103 L132 149.18499949358437 L133 142.00615512016932 L134 136.10632300504852 L135 131.61561967373865 L136 128.63308433671125 L137 127.22449465131531 L138 127.42091604317079 L139 129.21801658069944 L140 132.57616251273947 L141 137.4212923622303 L142 143.646550298465 L143 151.11464276506737 L144 159.66086638996975 L145 169.09674039903112 L146 179.21416342304036 L147 189.7900030227383 L148 200.5910167132061 L149 211.37899595799092 L150 221.9160196859011 L151 231.96970146796568 L152 241.3183146318646 L153 249.75568228314546 L154 257.095724387348 L155 263.1765616304326 L156 267.8640855498422 L157 271.05491619954296 L158 272.6786821198815 L159 272.69957232917494 L160 271.1171261089828 L161 267.966243164919 L162 263.31641393891323 L163 257.27018704782927 L164 249.96090764797037 L165 241.5497766042056 L166 232.22229532161296 L167 222.18417464630366 L168 211.65679806165508 L169 200.87233923587883 L170 190.06864159987379 L171 179.48397288256857 L172 169.35177028867787 L173 159.8954922101739 L174 151.32369001324548 L175 143.82540858891963 L176 137.56601710486797 L177 132.68356190814941 L178 129.2857220129785 L179 127.44743431803239 L180 127.209240927408 L181 128.57639502387127 L182 131.5187450137147 L183 135.97139949832518 L184 141.83615840699596 L185 148.98367872838355 L186 157.25632707697264 L187 166.47165618325857 L188 176.4264286361751 L189 186.90109913704106 L190 197.66465641216098 L191 208.47971799920143 L192 219.10776554552203 L193 229.31440515774244 L194 238.87453678934793 L195 247.57731865923125 L196 255.23081721451396 L197 261.66624008608665 L198 266.7416586820944 L199 270.3451383202667 L200 272.3972068662885 L201 272.8526074341806 L202 271.7012964941515 L203 268.9686653753753 L204 264.7149802786108 L205 259.0340531487802 L206 252.05117272044797 L207 243.9203413654958 L208 234.8208786823169 L209 224.95346673190897 L210 214.53572414032382 L211 203.7974066774367 L212 192.97534015979673 L213 182.30819742871668 L214 172.03123459357036 L215 162.37110262863627 L216 153.54084874996778 L217 145.73521781330095 L218 139.12635735726448 L219 133.8600210140615 L220 130.05235401864212 L221 127.78733170964368 L222 127.11490751409814 L223 128.04991126076862 L224 130.57172211901306 L225 134.624723376274 L226 140.11952902440387 L227 146.93495510335592 L228 154.9206923256781 L229 163.90062103901667 L230 173.67669541753068 L231 184.03331121918237 L232 194.7420607811905 L233 205.56677038565073 L234 216.26870889988336 L235 226.61185281871266 L236 236.36809159197676 L237 245.32225843755154 L238 253.27687568893495 L239 260.05651002220105 L240 265.5116415109337 L241 269.5219611799448 L242 271.99902433261275 L243 272.8882011346264 L244 272.1698814354273 L245 269.8599072558808 L246 266.00922340397665 L247 260.70275392397485 L248 254.05752915810015 L249 246.2201047270783 L250 237.36332935203737 L251 227.6825328011115 L252 217.3912180328365 L253 206.7163525429853 L254 195.8933627607832 L255 185.16094188947568 L256 174.755785700553 L257 164.90737237989336 L258 155.83290155252593 L259 147.73250410216323 L260 140.78482842946886 L261 135.14310049092836 L262 130.93174451132512 L263 128.24363889755068 L264 127.13806787258976 L265 127.63941400490758 L266 129.7366204685563 L267 133.3834348934655 L268 138.4994294279756 L269 144.97177451687133 L270 152.6577272755279 L271 161.38777958087942 L272 170.9693964503381 L273 181.191262261433 L274 191.82794116485718 L275 202.6448489088985 L276 213.4034264252614 L277 223.86640107658565 L278 233.8030195326698 L279 242.9941368680875 L280 251.23704964484926 L281 258.34996638995653 L282 264.17601687471375 L283 268.5867117740407 L284 271.4847764055026 L285 272.8062960520009 L286 272.52212555458016 L287 270.6385320878071 L288 267.1970569417724 L289 262.2735993590171 L290 255.9767426316915 L291 248.4453593756684 L292 239.84554879555046 L293 230.3669734869756 L294 220.21867656539874 L295 209.6244713715346 L296 198.81800543018474 L297 188.03760752324666 L298 177.5210315209952 L299 167.5002128926178 L300 158.19615353737362 L301 149.81404774772534 L302 142.53875679778653 L303 136.53073196177323 L304 131.9224758773245 L305 128.8156202957677 L306 127.27868466743087 L307 127.34556499477632 L308 129.01478628060923 L309 132.24953505807292 L310 136.978471285005 L311 143.09730169691366 L312 150.47107991941309 L313 158.93718261280054 L314 168.30889601206857 L315 178.37953376379906 L316 188.9269952440374 L317 199.71866382674335 L318 210.51653707504806 L319 221.08247571267754 L320 231.18345561326208 L321 240.59670697872352 L322 249.11462736587623 L323 256.5493602079938 L324 262.7369378553736 L325 267.5408977631268 L326 270.85529207380284 L327 272.60702422067163 L328 272.7574610195784 L329 271.3032846958471 L330 268.2765660553993 L331 263.74405718634966 L332 257.80571929003526 L333 250.59251810909723 L334 242.26353557285137 L335 233.00246136052306 L336 223.01354175836963 L337 212.5170751557253 L338 201.744553523528 L339 190.93355702651587 L340 180.32251436471282 L341 170.1454444010825 L342 160.62679504495102 L343 151.97649321587457 L344 144.3853150574299 L345 138.02067850749782 L346 133.02295101686187 L347 129.5023538467164 L348 127.53653121855498 L349 127.16883792708508 L350 128.4073831816211 L351 131.22485176334493 L352 135.55910644267868 L353 141.31455837089374 L354 148.3642752229563 L355 156.55278059805295 L356 165.69948293903514 L357 175.60265834845563 L358 186.04389946306955 L359 196.79293227008944 L360 207.61269463381083 L361 218.26456452936648 L362 228.5136226787118 L363 238.13383352520992 L364 246.91303028416849 L365 254.6575941276601 L366 261.1967243075789 L367 266.38620504247433 L368 270.11158609218944 L369 272.2907068750402 L370 272.87550845995685 L371 271.85309347141043 L372 269.24601053169215 L373 265.1117569673752 L374 259.5415107474083 L375 252.65811961902727 L376 244.6133917896395 L377 235.5847479067241 L378 225.77130817391645 L379 215.38950089908698 L380 204.66828932471935 L381 193.84412200937743 L382 183.1557181259455 L383 172.83880268311876 L384 163.1209077810097 L385 154.21635455542838 L386 146.32152648041034 L387 139.6105382728872 L388 134.2313959186754 L389 130.30273250762053 L390 127.911191866699 L391 127.1095176931478 L392 127.91539033041111 L393 130.31103684096732 L394 134.2436229755978 L395 139.62641839449773 L396 146.340709442125 L397 154.23841729091635 L398 163.14536371261352 L399 172.8651124529747 " stroke = "blue" stroke-width = "4" fill = "none" /></svg>