<svg width="1368" height="798" viewbox = "0 0 1368 798"  xmlns="http://www.w3.org/2000/svg">

<!--
<json>
{
    "svgwidth": 1368,
    "svgheight": 798,
    "unit": 100,
    "x0": 684,
    "y0": 399,
    "x0rel": 0,
    "y0rel": 0,
    "glyph": "0336,0331,0331,0332,0332,0222,0222,0222,0222,0222,0222,0222,",
    "table": [
        "0220:0304,0313,0210,0210,0336,0333,0331,0337,0204,0336,0330,0332,0337,0211,0211,",
        "0221:0304,0313,0330,0220,",
        "0222:0220,0221,0210,0221,0210,0221,",
        "0223:0304,0313,0336,0333,0334,0337,0362,0203,0335,0203,0203,0334,0336,0203,0335,0350,0335,0310,0337,0203,0203,0335,0335,0203,0203,0335,0335,0335,0336,0203,0304,0313,0334,0203,0203,0203,0203,0363,0335,0335,0332,0337,0330,0330,0330,",
        "0230:0313,0210,0210,0306,0330,0335,0335,0362,0203,0335,0203,0335,0203,0335,0203,0335,0203,0335,0203,0363,0334,0331,0211,0211,",
        "0231:0230,0333,0330,0230,",
        "0232:0231,0231,0231,",
        "0233:0313,0306,0362,0203,0335,0335,0203,0335,0335,0203,0335,0335,0363,",
        "01220:0333,0200,0332,0336,0333,0330,0220,0333,0331,0337,",
        "01221:0333,0200,0336,0332,0337,0221,0336,0333,0337,0331,",
        "01222:0333,0200,0336,0332,0222,0331,0331,0331,0333,0337,0336,0332,0337,",
        "01223:0333,0200,0336,0332,0223,0331,0331,0331,0333,0337,",
        "01230:0333,0200,0336,0330,0332,0230,0331,0304,0333,0337,",
        "01231:0333,0200,0332,0336,0330,0231,0335,0331,0334,0331,0331,0304,0337,0333,",
        "01232:0333,0200,0332,0336,0336,0232,0335,0331,0334,0331,0335,0331,0334,0331,0335,0331,0334,0331,0304,0337,0337,0333,",
        "01233:0333,0200,0336,0332,0337,0233,0304,0336,0333,0337,"
    ]
}
</json>
-->
	<path d = "M603 518 L603 480 L565 480 L565 518 L603 518 Z" stroke = "black" stroke-width = "2" fill = "black" />	<path d = "M603 468 L603 430 L565 430 L565 468 L603 468 Z" stroke = "black" stroke-width = "2" fill = "black" />	<path d = "M601 422 L601 389 L567 389 L567 422 L601 422 Z" stroke = "black" stroke-width = "2" fill = "black" />	<path d = "M599 382 L599 353 L569 353 L569 382 L599 382 Z" stroke = "black" stroke-width = "2" fill = "black" />	<path d = "M599 382 L599 353 L569 353 L569 382 L599 382 Z" stroke = "black" stroke-width = "2" fill = "black" />	<path d = "M599 343 L599 314 L569 314 L569 343 L599 343 Z" stroke = "black" stroke-width = "2" fill = "black" />	<path d = "M597 308 L597 283 L571 283 L571 308 L597 308 Z" stroke = "black" stroke-width = "2" fill = "black" />	<path d = "M595 277 L595 255 L573 255 L573 277 L595 277 Z" stroke = "black" stroke-width = "2" fill = "black" />	<path d = "M595 277 L595 255 L573 255 L573 277 L595 277 Z" stroke = "black" stroke-width = "2" fill = "black" />	<path d = "M595 248 L595 226 L573 226 L573 248 L595 248 Z" stroke = "black" stroke-width = "2" fill = "black" />	<path d = "M594 221 L594 202 L574 202 L574 221 L594 221 Z" stroke = "black" stroke-width = "2" fill = "black" />	<path d = "M593 198 L593 181 L575 181 L575 198 L593 198 Z" stroke = "black" stroke-width = "2" fill = "black" />	<path d = "M593 198 L593 181 L575 181 L575 198 L593 198 Z" stroke = "black" stroke-width = "2" fill = "black" />	<path d = "M593 176 L593 159 L575 159 L575 176 L593 176 Z" stroke = "black" stroke-width = "2" fill = "black" />	<path d = "M591 155 L591 140 L577 140 L577 155 L591 155 Z" stroke = "black" stroke-width = "2" fill = "black" />	<path d = "M591 137 L591 124 L577 124 L577 137 L591 137 Z" stroke = "black" stroke-width = "2" fill = "black" />	<path d = "M591 137 L591 124 L577 124 L577 137 L591 137 Z" stroke = "black" stroke-width = "2" fill = "black" />	<path d = "M591 120 L591 107 L577 107 L577 120 L591 120 Z" stroke = "black" stroke-width = "2" fill = "black" />	<path d = "M590 104 L590 93 L578 93 L578 104 L590 104 Z" stroke = "black" stroke-width = "2" fill = "black" />	<path d = "M589 91 L589 81 L579 81 L579 91 L589 91 Z" stroke = "black" stroke-width = "2" fill = "black" />	<path d = "M589 91 L589 81 L579 81 L579 91 L589 91 Z" stroke = "black" stroke-width = "2" fill = "black" />	<path d = "M589 78 L589 68 L579 68 L579 78 L589 78 Z" stroke = "black" stroke-width = "2" fill = "black" />	<path d = "M588 66 L588 57 L580 57 L580 66 L588 66 Z" stroke = "black" stroke-width = "2" fill = "black" />	<path d = "M588 55 L588 48 L580 48 L580 55 L588 55 Z" stroke = "black" stroke-width = "2" fill = "black" />	<path d = "M588 55 L588 48 L580 48 L580 55 L588 55 Z" stroke = "black" stroke-width = "2" fill = "black" />	<path d = "M588 45 L588 38 L580 38 L580 45 L588 45 Z" stroke = "black" stroke-width = "2" fill = "black" />	<path d = "M587 36 L587 29 L581 29 L581 36 L587 36 Z" stroke = "black" stroke-width = "2" fill = "black" />	<path d = "M587 28 L587 22 L581 22 L581 28 L587 28 Z" stroke = "black" stroke-width = "2" fill = "black" /></svg>