<svg width="250" height="250" viewbox = "0 0 250 250"  xmlns="http://www.w3.org/2000/svg">

<!--
<json>
{
    "svgwidth": 250,
    "svgheight": 250,
    "unit": 100,
    "x0": 684,
    "y0": 399,
    "x0rel": 0,
    "y0rel": 0,
    "glyph": "0331,0331,0331,0331,0331,0331,0331,0331,0331,0334,0226,0226,0226,0226,0226,0226,0226,0226,0226,0226,0226,0226,0226,0226,",
    "table": [
        "0220:0321,0332,0362,0203,0336,0333,0350,0334,0345,0335,0330,0335,0335,0203,0203,0334,0334,0331,0335,0345,0335,0330,0335,0335,0203,0203,0335,0333,0334,0334,0345,0335,0330,0335,0335,0203,0203,0335,0333,0334,0334,0345,0333,0364,0335,0337,0331,0304,0335,",
        "0221:0321,0336,0333,0337,0200,0336,0330,0332,0200,0336,0200,0331,0331,0337,0337,",
        "0222:0336,0336,0336,0347,0321,0337,0330,0306,0350,0334,0366,0335,0337,0330,0336,0330,0334,0334,0334,0334,0334,0334,0334,0367,0335,0330,0330,0330,0330,0334,0334,0334,0334,0330,0334,0366,0335,0330,0330,0330,0335,0335,0335,0335,0335,0367,0335,0330,0330,0330,0330,0334,0334,0334,0334,0330,0334,0366,0335,0330,0330,0330,0335,0335,0335,0335,0335,0367,0335,0330,0330,0330,0330,0334,0334,0334,0334,0330,0334,0366,0335,0330,0330,0330,0334,0334,0334,0334,0334,0334,0334,0367,0335,0330,0330,0330,0330,0334,0334,0334,0334,0330,0334,0366,0335,0330,0330,0330,0334,0334,0334,0334,0334,0334,0334,0367,0335,0330,0330,0330,0330,0334,0334,0334,0334,0330,0334,0366,0335,0330,0330,0330,0334,0335,0335,0335,0335,0335,0335,0367,0335,0330,0330,0330,0330,0334,0334,0334,0334,0304,0337,0337,",
        "0223:0336,0333,0334,0337,0321,0306,0362,0203,0335,0335,0203,0335,0335,0203,0354,0335,0335,0320,0336,0330,0335,0335,0362,0203,0334,0334,0203,0334,0334,0203,0354,0335,0335,0304,0335,0337,",
        "0224:0334,0336,0336,0362,0203,0335,0203,0203,0334,0203,0335,0350,0335,0310,0337,0203,0203,0335,0335,0203,0203,0335,0335,0335,0336,0203,0334,0334,0203,0203,0335,0335,0203,0363,0304,0335,0313,0337,0337,",
        "0225:0334,0336,0350,0310,0362,0203,0335,0335,0335,0337,0203,0335,0335,0203,0335,0335,0335,0336,0203,0363,0313,0304,0335,0337,",
        "0226:0320,0336,0350,0310,0362,0203,0335,0335,0203,0335,0335,0335,0337,0203,0363,0324,0334,0334,0334,0336,0362,0203,0334,0337,0203,0334,0334,0334,0336,0203,0334,0337,0203,0363,0335,0336,0331,0320,0335,0335,0335,0337,0362,0203,0335,0335,0335,0336,0203,0335,0335,0203,0363,0331,0335,0335,0313,0337,0304,",
        "0227:0220,0336,0332,0336,0336,0332,0332,0331,0337,0337,0226,0226,0226,0330,0330,0332,0332,0332,0226,0226,0226,0331,0332,0332,0332,0335,0336,0332,0336,0333,0337,0337,0225,0336,0336,0330,0337,0337,0330,0225,0330,0336,0336,0330,0337,0337,0225,0334,0331,0332,0337,",
        "0230:0220,0211,0211,0211,0223,0210,0210,0210,",
        "0231:0220,0336,0336,0336,0330,0332,0332,0330,0337,0337,0333,0337,0200,0336,0330,0335,0224,0335,0333,0330,0224,0335,0335,0336,0333,0331,0337,0337,",
        "0232:0321,0336,0336,0330,0331,0337,0362,0203,0336,0203,0364,0331,0331,0331,0330,0330,0366,0331,0331,0335,0335,0331,0331,0331,0333,0367,0335,0335,0333,0331,0366,0330,0335,0335,0332,0367,0335,0335,0331,0331,0332,0366,0330,0330,0333,0336,0333,0335,0335,0337,0367,0335,0335,0331,0331,0332,0332,0336,0333,0337,0366,0330,0330,0332,0336,0332,0335,0335,0337,0367,0335,0335,0333,0331,0331,0336,0333,0337,0331,0366,0335,0335,0331,0331,0332,0336,0332,0337,0367,0335,0335,0331,0331,0332,0332,0336,0333,0337,0366,0330,0330,0332,0332,0336,0333,0335,0335,0337,0367,0335,0335,0333,0333,0336,0332,0337,0331,0336,0337,0331,0337,0320,0337,",
        "0233:0321,0304,0313,0332,0362,0203,0335,0203,0203,0335,0203,0335,0203,0203,0354,0335,0333,0336,0330,0210,0341,0336,0341,0337,0211,0332,0336,0330,0332,0336,0341,0337,0333,0333,0333,0330,0332,0332,0350,0335,0310,0337,0362,0203,0335,0336,0203,0203,0335,0337,0203,0364,0334,0334,0334,0336,0313,0304,0337,0332,0331,0331,0337,0320,",
        "0234:0320,0336,0331,0336,0330,0330,0304,0350,0334,0304,0313,0337,0350,0334,0310,0336,0362,0203,0335,0335,0335,0336,0203,0335,0335,0203,0363,0334,0334,0334,0337,0362,0203,0335,0335,0335,0336,0203,0335,0335,0203,0363,0334,0334,0334,0337,0362,0203,0335,0335,0335,0336,0203,0335,0335,0203,0363,0334,0334,0362,0203,0334,0334,0203,0334,0334,0334,0337,0203,0363,0330,0335,0335,0336,0333,0335,0335,0335,0335,0337,0313,0304,0305,0311,0335,0337,0362,0203,0334,0334,0350,0350,0334,0203,0363,0331,0335,0342,0334,0334,0330,0335,0335,0335,0335,0335,0335,0336,0313,0304,0334,0305,0311,0334,0337,0201,0335,0335,0362,0203,0335,0350,0335,0336,0304,0313,0350,0334,0310,0336,0203,0363,0334,0334,0362,0203,0334,0334,0334,0310,0337,0311,0305,0335,0337,0203,0363,0334,0334,0342,0350,0334,0330,0335,0335,0335,0336,0310,0304,0350,0336,0334,0330,0334,0334,0362,0203,0334,0334,0334,0337,0311,0305,0335,0337,0203,0363,0334,0334,0342,0350,0330,0334,0334,0334,0336,0310,0304,0350,0336,0333,0337,0337,0304,0313,0337,",
        "0235:0336,0336,0331,0333,0337,0321,0200,0336,0336,0331,0337,0362,0203,0203,0203,0364,0335,0335,0332,0362,0203,0203,0203,0364,0335,0335,0332,0332,0332,0362,0203,0203,0203,0364,0335,0335,0333,0362,0203,0203,0203,0364,0334,0336,0331,0337,0337,0342,0332,0336,0332,0337,0342,0330,0330,0336,0331,0337,0342,0333,0333,0336,0332,0337,0342,0334,0330,0336,0333,0330,0342,0335,0335,0330,0330,0330,0342,0333,0333,0333,0342,0331,0331,0331,0335,0335,0342,0333,0331,0331,0336,0330,0333,0337,0337,0337,0320,",
        "0236:0321,0336,0336,0362,0203,0203,0203,0334,0203,0203,0334,0203,0203,0203,0334,0203,0203,0354,0334,0330,0330,0330,0332,0336,0333,0337,0336,0362,0203,0334,0203,0203,0203,0203,0334,0203,0203,0203,0203,0203,0203,0334,0203,0364,0335,0335,0330,0333,0362,0203,0335,0203,0203,0203,0203,0203,0203,0335,0203,0203,0203,0203,0335,0203,0364,0335,0335,0333,0333,0331,0337,0337,0331,0336,0331,0337,0337,0320,",
        "0237:0321,0200,0336,0330,0336,0330,0334,0362,0203,0203,0203,0334,0203,0203,0203,0364,0335,0335,0330,0335,0362,0203,0203,0334,0203,0203,0364,0331,0332,0200,0333,0333,0331,0331,0337,0337,",
        "0240:0331,0321,0334,0336,0362,0203,0335,0337,0203,0203,0334,0336,0203,0335,0350,0310,0335,0337,0203,0203,0335,0335,0203,0203,0335,0335,0335,0336,0203,0313,0304,0334,0203,0203,0203,0203,0335,0203,0354,0335,0337,0330,0320,",
        "0241:0220,0336,0330,0337,0235,",
        "0242:0220,0336,0333,0336,0333,0331,0332,0337,0337,0211,0211,0211,0236,0210,0210,0210,0336,0332,0336,0330,0337,0337,",
        "0243:0220,0330,0336,0333,0331,0336,0331,0333,0337,0336,0330,0332,0337,0234,0336,0336,0332,0337,0337,0336,0333,0331,0337,0336,0332,0330,0337,0332,0332,0332,0333,0336,0331,0333,0337,0237,0335,0336,0332,0336,0330,0337,0224,0334,0331,0331,0333,0336,0337,0337,0337,0320,",
        "0244:0341,",
        "0245:0341,",
        "0246:0341,",
        "0247:0341,",
        "0250:0341,",
        "01220:0333,0200,0336,0332,0336,0336,0330,0330,0330,0337,0337,0210,0210,0210,0220,0211,0211,0211,0333,0336,0331,0336,0331,0337,0337,0337,0320,",
        "01221:0333,0200,0336,0330,0332,0336,0331,0337,0221,0333,0336,0331,0337,0337,0320,",
        "01222:0333,0200,0336,0332,0330,0222,0333,0331,0337,0320,",
        "01223:0333,0200,0336,0332,0336,0330,0337,0337,0210,0210,0223,0211,0211,0336,0336,0331,0337,0333,0337,",
        "01224:0333,0200,0336,0332,0330,0336,0331,0337,0224,0333,0336,0331,0337,0337,",
        "01225:0333,0200,0336,0332,0330,0225,0333,0331,0337,",
        "01226:0333,0200,0336,0330,0332,0332,0226,0226,0331,0337,",
        "01227:0333,0200,0336,0336,0330,0337,0332,0210,0227,0211,0331,0333,0337,0336,0336,0330,0337,0337,",
        "01230:0333,0200,0336,0330,0332,0336,0331,0337,0210,0210,0230,0211,0211,0331,0304,0333,0337,0336,0336,0330,0337,0337,",
        "01231:0333,0200,0332,0336,0330,0336,0331,0337,0333,0210,0210,0231,0211,0211,0333,0331,0336,0330,0337,0337,0320,",
        "01232:0333,0200,0336,0332,0330,0332,0333,0336,0331,0337,0210,0232,0211,0333,0336,0331,0337,0337,",
        "01233:0333,0200,0336,0332,0337,0336,0332,0336,0336,0333,0330,0337,0337,0210,0210,0233,0211,0211,0313,0336,0336,0332,0332,0333,0331,0337,0337,0337,0333,",
        "01234:0333,0200,0336,0234,0337,",
        "01235:0333,0200,0336,0332,0336,0330,0332,0235,0333,0333,0333,0336,0336,0331,0331,0331,0331,0337,0337,0337,0337,",
        "01236:0333,0200,0336,0330,0330,0332,0336,0331,0337,0236,0333,0331,0331,0336,0330,0337,0337,",
        "01237:0333,0200,0336,0330,0332,0237,0333,0331,0337,",
        "01240:0333,0200,0336,0336,0332,0332,0240,0333,0333,0337,0337,",
        "01241:0333,0200,0336,0332,0241,0333,0337,",
        "01242:0333,0200,0336,0332,0332,0336,0330,0330,0242,0336,0331,0331,0331,0331,0332,0337,0337,0337,",
        "01243:0333,0200,0336,0332,0332,0243,0337,",
        "01244:0333,0200,0332,0336,0330,0336,0336,0243,0243,0243,0243,0331,0331,0331,0331,0337,0337,0337,",
        "01245:0333,0200,0336,0332,0336,0331,0337,0245,0333,0336,0330,0337,0337,",
        "01246:0333,0200,0330,0332,0336,0331,0336,0332,0337,0246,0333,0333,0336,0333,0331,0331,0337,0337,",
        "01247:0333,0200,0336,0330,0332,0337,0247,0336,0333,0331,0337,"
    ]
}
</json>
-->
	<path d = "M125 1025 L75 1025 L75 975 L125 1025 Z" stroke = "black" stroke-width = "1" fill = "black" />	<path d = "M125 1025 L125 975 L75 925 L75 975 L125 1025 Z" stroke = "yellow" stroke-width = "1" fill = "yellow" />	<path d = "M125 975 L75 925 L125 925 L125 975 Z" stroke = "black" stroke-width = "1" fill = "black" />	<path d = "M125 925 L75 925 L75 875 L125 925 Z" stroke = "black" stroke-width = "1" fill = "black" />	<path d = "M125 925 L125 875 L75 825 L75 875 L125 925 Z" stroke = "yellow" stroke-width = "1" fill = "yellow" />	<path d = "M125 875 L75 825 L125 825 L125 875 Z" stroke = "black" stroke-width = "1" fill = "black" />	<path d = "M125 825 L75 825 L75 775 L125 825 Z" stroke = "black" stroke-width = "1" fill = "black" />	<path d = "M125 825 L125 775 L75 725 L75 775 L125 825 Z" stroke = "yellow" stroke-width = "1" fill = "yellow" />	<path d = "M125 775 L75 725 L125 725 L125 775 Z" stroke = "black" stroke-width = "1" fill = "black" />	<path d = "M125 725 L75 725 L75 675 L125 725 Z" stroke = "black" stroke-width = "1" fill = "black" />	<path d = "M125 725 L125 675 L75 625 L75 675 L125 725 Z" stroke = "yellow" stroke-width = "1" fill = "yellow" />	<path d = "M125 675 L75 625 L125 625 L125 675 Z" stroke = "black" stroke-width = "1" fill = "black" />	<path d = "M125 625 L75 625 L75 575 L125 625 Z" stroke = "black" stroke-width = "1" fill = "black" />	<path d = "M125 625 L125 575 L75 525 L75 575 L125 625 Z" stroke = "yellow" stroke-width = "1" fill = "yellow" />	<path d = "M125 575 L75 525 L125 525 L125 575 Z" stroke = "black" stroke-width = "1" fill = "black" />	<path d = "M125 525 L75 525 L75 475 L125 525 Z" stroke = "black" stroke-width = "1" fill = "black" />	<path d = "M125 525 L125 475 L75 425 L75 475 L125 525 Z" stroke = "yellow" stroke-width = "1" fill = "yellow" />	<path d = "M125 475 L75 425 L125 425 L125 475 Z" stroke = "black" stroke-width = "1" fill = "black" />	<path d = "M125 425 L75 425 L75 375 L125 425 Z" stroke = "black" stroke-width = "1" fill = "black" />	<path d = "M125 425 L125 375 L75 325 L75 375 L125 425 Z" stroke = "yellow" stroke-width = "1" fill = "yellow" />	<path d = "M125 375 L75 325 L125 325 L125 375 Z" stroke = "black" stroke-width = "1" fill = "black" />	<path d = "M125 325 L75 325 L75 275 L125 325 Z" stroke = "black" stroke-width = "1" fill = "black" />	<path d = "M125 325 L125 275 L75 225 L75 275 L125 325 Z" stroke = "yellow" stroke-width = "1" fill = "yellow" />	<path d = "M125 275 L75 225 L125 225 L125 275 Z" stroke = "black" stroke-width = "1" fill = "black" />	<path d = "M125 225 L75 225 L75 175 L125 225 Z" stroke = "black" stroke-width = "1" fill = "black" />	<path d = "M125 225 L125 175 L75 125 L75 175 L125 225 Z" stroke = "yellow" stroke-width = "1" fill = "yellow" />	<path d = "M125 175 L75 125 L125 125 L125 175 Z" stroke = "black" stroke-width = "1" fill = "black" />	<path d = "M125 125 L75 125 L75 75 L125 125 Z" stroke = "black" stroke-width = "1" fill = "black" />	<path d = "M125 125 L125 75 L75 25 L75 75 L125 125 Z" stroke = "yellow" stroke-width = "1" fill = "yellow" />	<path d = "M125 75 L75 25 L125 25 L125 75 Z" stroke = "black" stroke-width = "1" fill = "black" />	<path d = "M125 25 L75 25 L75 -25 L125 25 Z" stroke = "black" stroke-width = "1" fill = "black" />	<path d = "M125 25 L125 -25 L75 -75 L75 -25 L125 25 Z" stroke = "yellow" stroke-width = "1" fill = "yellow" />	<path d = "M125 -25 L75 -75 L125 -75 L125 -25 Z" stroke = "black" stroke-width = "1" fill = "black" />	<path d = "M125 -75 L75 -75 L75 -125 L125 -75 Z" stroke = "black" stroke-width = "1" fill = "black" />	<path d = "M125 -75 L125 -125 L75 -175 L75 -125 L125 -75 Z" stroke = "yellow" stroke-width = "1" fill = "yellow" />	<path d = "M125 -125 L75 -175 L125 -175 L125 -125 Z" stroke = "black" stroke-width = "1" fill = "black" />	<path d = "M125 -175 L75 -175 L75 -225 L125 -175 Z" stroke = "black" stroke-width = "1" fill = "black" />	<path d = "M125 -175 L125 -225 L75 -275 L75 -225 L125 -175 Z" stroke = "yellow" stroke-width = "1" fill = "yellow" />	<path d = "M125 -225 L75 -275 L125 -275 L125 -225 Z" stroke = "black" stroke-width = "1" fill = "black" />	<path d = "M125 -275 L75 -275 L75 -325 L125 -275 Z" stroke = "black" stroke-width = "1" fill = "black" />	<path d = "M125 -275 L125 -325 L75 -375 L75 -325 L125 -275 Z" stroke = "yellow" stroke-width = "1" fill = "yellow" />	<path d = "M125 -325 L75 -375 L125 -375 L125 -325 Z" stroke = "black" stroke-width = "1" fill = "black" /></svg>