<svg width="1505" height="878" viewbox = "0 0 1505 878"  xmlns="http://www.w3.org/2000/svg">

<!--
<json>
{
    "svgwidth": 1505,
    "svgheight": 878,
    "unit": 100,
    "x0": 752.5,
    "y0": 439,
    "x0rel": 0,
    "y0rel": 0,
    "glyph": "0336,0222,0222,0335,0222,0335,0222,0335,0222,0222,0222,0222,",
    "table": [
        "0220:0304,0313,0210,0210,0336,0333,0331,0337,0204,0336,0330,0332,0337,0211,0211,",
        "0221:0304,0313,0330,0220,",
        "0222:0220,0221,0221,0221,",
        "0223:0304,0313,0336,0333,0334,0337,0362,0203,0335,0203,0203,0334,0336,0203,0335,0350,0335,0310,0337,0203,0203,0335,0335,0203,0203,0335,0335,0335,0336,0203,0304,0313,0334,0203,0203,0203,0203,0363,0335,0335,0332,0337,0330,0330,0330,",
        "0224:0230,",
        "0225:0231,",
        "0226:0232,",
        "0230:0313,0210,0210,0306,0330,0335,0335,0362,0203,0335,0203,0335,0203,0335,0203,0335,0203,0335,0203,0363,0334,0331,0211,0211,",
        "0231:0230,0333,0330,0230,",
        "0232:0231,0231,0231,",
        "0233:0313,0306,0362,0203,0335,0335,0203,0335,0335,0203,0335,0335,0363,",
        "01220:0333,0200,0332,0336,0333,0330,0220,0333,0331,0337,",
        "01221:0333,0200,0336,0332,0337,0221,0336,0333,0337,0331,",
        "01222:0333,0200,0336,0332,0222,0331,0331,0331,0333,0337,0336,0332,0337,",
        "01223:0333,0200,0336,0332,0223,0331,0331,0331,0333,0337,",
        "01224:0333,0200,0336,0330,0332,0224,0304,0333,0331,0337,",
        "01225:0333,0200,0336,0332,0332,0225,0335,0331,0334,0331,0304,0337,0333,",
        "01226:0333,0200,0336,0336,0332,0332,0332,0332,0226,0331,0335,0331,0334,0331,0335,0331,0334,0331,0335,0331,0334,0304,0337,0337,0333,",
        "01230:0333,0200,0336,0330,0332,0230,0331,0304,0333,0337,",
        "01231:0333,0200,0332,0336,0330,0231,0335,0331,0334,0331,0331,0304,0337,0333,",
        "01232:0333,0200,0332,0336,0336,0232,0335,0331,0334,0331,0335,0331,0334,0331,0335,0331,0334,0331,0304,0337,0337,0333,",
        "01233:0333,0200,0336,0332,0337,0233,0304,0336,0333,0337,"
    ]
}
</json>
-->
	<path d = "M772 458 L772 420 L733 420 L733 458 L772 458 Z" stroke = "black" stroke-width = "2" fill = "black" />	<path d = "M772 408 L772 370 L733 370 L733 408 L772 408 Z" stroke = "black" stroke-width = "2" fill = "black" />	<path d = "M772 358 L772 320 L733 320 L733 358 L772 358 Z" stroke = "black" stroke-width = "2" fill = "black" />	<path d = "M772 308 L772 270 L733 270 L733 308 L772 308 Z" stroke = "black" stroke-width = "2" fill = "black" />	<path d = "M772 308 L772 270 L733 270 L733 308 L772 308 Z" stroke = "black" stroke-width = "2" fill = "black" />	<path d = "M772 258 L772 220 L733 220 L733 258 L772 258 Z" stroke = "black" stroke-width = "2" fill = "black" />	<path d = "M772 208 L772 170 L733 170 L733 208 L772 208 Z" stroke = "black" stroke-width = "2" fill = "black" />	<path d = "M772 158 L772 120 L733 120 L733 158 L772 158 Z" stroke = "black" stroke-width = "2" fill = "black" />	<path d = "M733 158 L772 158 L772 120 L733 120 L733 158 Z" stroke = "black" stroke-width = "2" fill = "black" />	<path d = "M783 158 L822 158 L822 120 L783 120 L783 158 Z" stroke = "black" stroke-width = "2" fill = "black" />	<path d = "M833 158 L872 158 L872 120 L833 120 L833 158 Z" stroke = "black" stroke-width = "2" fill = "black" />	<path d = "M883 158 L922 158 L922 120 L883 120 L883 158 Z" stroke = "black" stroke-width = "2" fill = "black" />	<path d = "M883 120 L883 158 L922 158 L922 120 L883 120 Z" stroke = "black" stroke-width = "2" fill = "black" />	<path d = "M883 170 L883 208 L922 208 L922 170 L883 170 Z" stroke = "black" stroke-width = "2" fill = "black" />	<path d = "M883 220 L883 258 L922 258 L922 220 L883 220 Z" stroke = "black" stroke-width = "2" fill = "black" />	<path d = "M883 270 L883 308 L922 308 L922 270 L883 270 Z" stroke = "black" stroke-width = "2" fill = "black" />	<path d = "M922 270 L883 270 L883 308 L922 308 L922 270 Z" stroke = "black" stroke-width = "2" fill = "black" />	<path d = "M872 270 L833 270 L833 308 L872 308 L872 270 Z" stroke = "black" stroke-width = "2" fill = "black" />	<path d = "M822 270 L783 270 L783 308 L822 308 L822 270 Z" stroke = "black" stroke-width = "2" fill = "black" />	<path d = "M772 270 L733 270 L733 308 L772 308 L772 270 Z" stroke = "black" stroke-width = "2" fill = "black" />	<path d = "M772 270 L733 270 L733 308 L772 308 L772 270 Z" stroke = "black" stroke-width = "2" fill = "black" />	<path d = "M722 270 L683 270 L683 308 L722 308 L722 270 Z" stroke = "black" stroke-width = "2" fill = "black" />	<path d = "M672 270 L633 270 L633 308 L672 308 L672 270 Z" stroke = "black" stroke-width = "2" fill = "black" />	<path d = "M622 270 L583 270 L583 308 L622 308 L622 270 Z" stroke = "black" stroke-width = "2" fill = "black" />	<path d = "M622 270 L583 270 L583 308 L622 308 L622 270 Z" stroke = "black" stroke-width = "2" fill = "black" />	<path d = "M572 270 L533 270 L533 308 L572 308 L572 270 Z" stroke = "black" stroke-width = "2" fill = "black" />	<path d = "M522 270 L483 270 L483 308 L522 308 L522 270 Z" stroke = "black" stroke-width = "2" fill = "black" />	<path d = "M472 270 L433 270 L433 308 L472 308 L472 270 Z" stroke = "black" stroke-width = "2" fill = "black" />	<path d = "M472 270 L433 270 L433 308 L472 308 L472 270 Z" stroke = "black" stroke-width = "2" fill = "black" />	<path d = "M422 270 L383 270 L383 308 L422 308 L422 270 Z" stroke = "black" stroke-width = "2" fill = "black" />	<path d = "M372 270 L333 270 L333 308 L372 308 L372 270 Z" stroke = "black" stroke-width = "2" fill = "black" />	<path d = "M322 270 L283 270 L283 308 L322 308 L322 270 Z" stroke = "black" stroke-width = "2" fill = "black" /></svg>