<svg width="1368" height="798" viewbox = "0 0 1368 798"  xmlns="http://www.w3.org/2000/svg">

<!--
<json>
{
    "svgwidth": 1368,
    "svgheight": 798,
    "unit": 100,
    "x0": 684,
    "y0": 399,
    "x0rel": 0,
    "y0rel": 0,
    "glyph": "0331,0331,0331,0331,0331,0331,0331,0331,0332,0332,0332,0332,0332,0222,0222,0232,0232,0232,0232,0232,0335,0337,0232,0232,",
    "table": []
}
</json>
-->
	<path d = "M222 1237 L222 1161 L146 1161 L146 1237 L222 1237 Z" stroke = "black" stroke-width = "2" fill = "black" />	<path d = "M222 1137 L222 1061 L146 1061 L146 1137 L222 1137 Z" stroke = "black" stroke-width = "2" fill = "black" />	<path d = "M222 1037 L222 961 L146 961 L146 1037 L222 1037 Z" stroke = "black" stroke-width = "2" fill = "black" />	<path d = "M322 937 L322 861 L246 861 L246 937 L322 937 Z" stroke = "black" stroke-width = "2" fill = "black" />	<path d = "M322 937 L322 861 L246 861 L246 937 L322 937 Z" stroke = "black" stroke-width = "2" fill = "black" />	<path d = "M322 837 L322 761 L246 761 L246 837 L322 837 Z" stroke = "black" stroke-width = "2" fill = "black" />	<path d = "M322 737 L322 661 L246 661 L246 737 L322 737 Z" stroke = "black" stroke-width = "2" fill = "black" />	<path d = "M422 637 L422 561 L346 561 L346 637 L422 637 Z" stroke = "black" stroke-width = "2" fill = "black" />	<path d = "M384 523 L450 561 L450 637 L384 675 L318 637 L318 561 L384 523 Z" stroke = "black" stroke-width = "2" fill = "black" />	<path d = "M478 391 L525 427 L517 485 L463 507 L417 471 L424 413 L478 391 Z" stroke = "black" stroke-width = "2" fill = "black" />	<path d = "M478 391 L525 427 L517 485 L463 507 L417 471 L424 413 L478 391 Z" stroke = "black" stroke-width = "2" fill = "black" />	<path d = "M563 301 L594 332 L583 376 L540 387 L508 356 L520 313 L563 301 Z" stroke = "black" stroke-width = "2" fill = "black" />	<path d = "M563 301 L594 332 L583 376 L540 387 L508 356 L520 313 L563 301 Z" stroke = "black" stroke-width = "2" fill = "black" />	<path d = "M636 241 L656 268 L643 300 L610 304 L589 277 L602 246 L636 241 Z" stroke = "black" stroke-width = "2" fill = "black" />	<path d = "M636 241 L656 268 L643 300 L610 304 L589 277 L602 246 L636 241 Z" stroke = "black" stroke-width = "2" fill = "black" />	<path d = "M697 203 L710 226 L697 248 L671 248 L658 226 L671 203 L697 203 Z" stroke = "black" stroke-width = "2" fill = "black" />	<path d = "M697 203 L710 226 L697 248 L671 248 L658 226 L671 203 L697 203 Z" stroke = "black" stroke-width = "2" fill = "black" />	<path d = "M747 180 L755 199 L743 214 L723 212 L715 193 L727 178 L747 180 Z" stroke = "black" stroke-width = "2" fill = "black" />	<path d = "M747 180 L755 199 L743 214 L723 212 L715 193 L727 178 L747 180 Z" stroke = "black" stroke-width = "2" fill = "black" />	<path d = "M787 168 L791 183 L781 193 L766 190 L762 175 L773 164 L787 168 Z" stroke = "black" stroke-width = "2" fill = "black" />	<path d = "M787 168 L791 183 L781 193 L766 190 L762 175 L773 164 L787 168 Z" stroke = "black" stroke-width = "2" fill = "black" />	<path d = "M819 163 L821 174 L811 181 L801 177 L799 165 L808 158 L819 163 Z" stroke = "black" stroke-width = "2" fill = "black" />	<path d = "M819 163 L821 174 L811 181 L801 177 L799 165 L808 158 L819 163 Z" stroke = "black" stroke-width = "2" fill = "black" />	<path d = "M844 162 L844 171 L836 175 L828 171 L828 162 L836 158 L844 162 Z" stroke = "black" stroke-width = "2" fill = "black" />	<path d = "M844 162 L844 171 L836 175 L828 171 L828 162 L836 158 L844 162 Z" stroke = "black" stroke-width = "2" fill = "black" />	<path d = "M862 164 L861 171 L855 173 L850 169 L851 162 L857 160 L862 164 Z" stroke = "black" stroke-width = "2" fill = "black" />	<path d = "M862 164 L861 171 L855 173 L850 169 L851 162 L857 160 L862 164 Z" stroke = "black" stroke-width = "2" fill = "black" />	<path d = "M876 167 L875 172 L870 173 L866 170 L868 165 L873 163 L876 167 Z" stroke = "black" stroke-width = "2" fill = "black" />	<path d = "M876 167 L875 172 L870 173 L866 170 L868 165 L873 163 L876 167 Z" stroke = "black" stroke-width = "2" fill = "black" />	<path d = "M886 171 L885 175 L881 175 L879 172 L880 168 L884 168 L886 171 Z" stroke = "black" stroke-width = "2" fill = "black" />	<path d = "M886 171 L885 175 L881 175 L879 172 L880 168 L884 168 L886 171 Z" stroke = "black" stroke-width = "2" fill = "black" />	<path d = "M894 175 L892 178 L889 178 L888 175 L889 172 L892 172 L894 175 Z" stroke = "black" stroke-width = "2" fill = "black" />	<path d = "M894 175 L892 178 L889 178 L888 175 L889 172 L892 172 L894 175 Z" stroke = "black" stroke-width = "2" fill = "black" />	<path d = "M899 179 L898 180 L895 180 L894 178 L896 176 L898 177 L899 179 Z" stroke = "black" stroke-width = "2" fill = "black" />	<path d = "M899 179 L898 180 L895 180 L894 178 L896 176 L898 177 L899 179 Z" stroke = "black" stroke-width = "2" fill = "black" />	<path d = "M903 182 L901 183 L900 183 L899 181 L900 180 L902 180 L903 182 Z" stroke = "black" stroke-width = "2" fill = "black" />	<path d = "M903 182 L901 183 L900 183 L899 181 L900 180 L902 180 L903 182 Z" stroke = "black" stroke-width = "2" fill = "black" />	<path d = "M905 185 L904 186 L903 185 L902 184 L904 183 L905 184 L905 185 Z" stroke = "black" stroke-width = "2" fill = "black" />	<path d = "M904 187 L902 186 L901 183 L903 182 L906 183 L906 185 L904 187 Z" stroke = "black" stroke-width = "2" fill = "black" />	<path d = "M901 192 L900 191 L900 189 L901 188 L903 189 L903 191 L901 192 Z" stroke = "black" stroke-width = "2" fill = "black" />	<path d = "M901 192 L900 191 L900 189 L901 188 L903 189 L903 191 L901 192 Z" stroke = "black" stroke-width = "2" fill = "black" />	<path d = "M899 196 L898 195 L898 193 L899 192 L901 193 L900 195 L899 196 Z" stroke = "black" stroke-width = "2" fill = "black" />	<path d = "M899 196 L898 195 L898 193 L899 192 L901 193 L900 195 L899 196 Z" stroke = "black" stroke-width = "2" fill = "black" />	<path d = "M897 198 L896 197 L896 196 L897 196 L898 197 L898 198 L897 198 Z" stroke = "black" stroke-width = "2" fill = "black" />	<path d = "M897 198 L896 197 L896 196 L897 196 L898 197 L898 198 L897 198 Z" stroke = "black" stroke-width = "2" fill = "black" />	<path d = "M895 200 L894 199 L894 198 L895 198 L896 199 L896 200 L895 200 Z" stroke = "black" stroke-width = "2" fill = "black" />	<path d = "M895 200 L894 199 L894 198 L895 198 L896 199 L896 200 L895 200 Z" stroke = "black" stroke-width = "2" fill = "black" />	<path d = "M893 201 L893 200 L893 199 L894 199 L894 200 L894 201 L893 201 Z" stroke = "black" stroke-width = "2" fill = "black" />	<path d = "M893 201 L893 200 L893 199 L894 199 L894 200 L894 201 L893 201 Z" stroke = "black" stroke-width = "2" fill = "black" />	<path d = "M892 201 L891 201 L892 200 L892 200 L892 201 L892 201 L892 201 Z" stroke = "black" stroke-width = "2" fill = "black" /></svg>