<svg width="1368" height="798" viewbox = "0 0 1368 798"  xmlns="http://www.w3.org/2000/svg">

<!--
<json>
{
    "imgurl": "",
    "imgw": 4.743971328437736,
    "imgleft": -2.2873205904167726,
    "imgtop": -3.171985664218851,
    "imgangle": 0,
    "svgwidth": 1368,
    "svgheight": 798,
    "unit": 100,
    "x0": 684,
    "y0": 399,
    "x0rel": 0,
    "y0rel": 0,
    "glyph": "0331,0332,0332,0331,0332,0337,0336,0222,0335,0363,0222,0221,0221,0334,0221,0334,0330,0336,0221,0221,0221,0330,0330,0335,0330,0334,0221,0221,0221,0221,0334,0333,0336,0330,0330,0221,0221,0221,0221,0221,",
    "table": []
}
</json>
-->
	<path d = "M422 637 L422 561 L346 561 L346 637 L422 637 Z" stroke = "black" stroke-width = "4" fill = "black" />	<path d = "M422 537 L422 461 L346 461 L346 537 L422 537 Z" stroke = "black" stroke-width = "4" fill = "black" />	<path d = "M422 437 L422 361 L346 361 L346 437 L422 437 Z" stroke = "black" stroke-width = "4" fill = "black" />	<path d = "M422 337 L422 261 L346 261 L346 337 L422 337 Z" stroke = "black" stroke-width = "4" fill = "black" />Z" stroke = "black" stroke-width = "4" fill = "black" />	<path d = "M346 337 L422 337 L422 261 L346 261 L346 337 Z" stroke = "black" stroke-width = "4" fill = "black" />	<path d = "M446 337 L522 337 L522 261 L446 261 L446 337 Z" stroke = "black" stroke-width = "4" fill = "black" />	<path d = "M546 337 L622 337 L622 261 L546 261 L546 337 Z" stroke = "black" stroke-width = "4" fill = "black" />	<path d = "M646 337 L722 337 L722 261 L646 261 L646 337 Z" stroke = "black" stroke-width = "4" fill = "black" />	<path d = "M746 337 L822 337 L822 261 L746 261 L746 337 Z" stroke = "black" stroke-width = "4" fill = "black" />	<path d = "M846 337 L922 337 L922 261 L846 261 L846 337 Z" stroke = "black" stroke-width = "4" fill = "black" />	<path d = "M922 237 L922 161 L846 161 L846 237 L922 237 Z" stroke = "black" stroke-width = "4" fill = "black" />	<path d = "M753 180 L715 180 L715 218 L753 218 L753 180 Z" stroke = "black" stroke-width = "4" fill = "black" />	<path d = "M703 180 L665 180 L665 218 L703 218 L703 180 Z" stroke = "black" stroke-width = "4" fill = "black" />	<path d = "M653 180 L615 180 L615 218 L653 218 L653 180 Z" stroke = "black" stroke-width = "4" fill = "black" />	<path d = "M503 130 L465 130 L465 168 L503 168 L503 130 Z" stroke = "black" stroke-width = "4" fill = "black" />	<path d = "M453 130 L415 130 L415 168 L453 168 L453 130 Z" stroke = "black" stroke-width = "4" fill = "black" />	<path d = "M403 130 L365 130 L365 168 L403 168 L403 130 Z" stroke = "black" stroke-width = "4" fill = "black" />	<path d = "M353 130 L315 130 L315 168 L353 168 L353 130 Z" stroke = "black" stroke-width = "4" fill = "black" />	<path d = "M274 214 L274 234 L294 234 L294 214 L274 214 Z" stroke = "black" stroke-width = "4" fill = "black" />	<path d = "M274 239 L274 259 L294 259 L294 239 L274 239 Z" stroke = "black" stroke-width = "4" fill = "black" />	<path d = "M274 264 L274 284 L294 284 L294 264 L274 264 Z" stroke = "black" stroke-width = "4" fill = "black" />	<path d = "M274 289 L274 309 L294 309 L294 289 L274 289 Z" stroke = "black" stroke-width = "4" fill = "black" />	<path d = "M274 314 L274 334 L294 334 L294 314 L274 314 Z" stroke = "black" stroke-width = "4" fill = "black" /></svg>