<svg width="1368" height="798" viewbox = "0 0 1368 798"  xmlns="http://www.w3.org/2000/svg">

<!--
<json>
{
    "svgwidth": 1368,
    "svgheight": 798,
    "unit": 100,
    "x0": 684,
    "y0": 399,
    "x0rel": 0,
    "y0rel": 0,
    "glyph": "0225,0222,0222,0222,0224,0222,0222,0224,0222,0222,0222,0222,0222,0222,0224,0223,0223,0223,0223,0226,0224,0222,0222,0222,0222,0222,0222,",
    "table": [
        "0220:0320,0304,0313,0210,0210,0336,0333,0331,0337,0204,0336,0330,0332,0337,0211,0211,",
        "0221:0320,0304,0313,0330,0220,",
        "0222:0320,0313,0304,0336,0334,0336,0336,0362,0203,0335,0337,0337,0203,0203,0335,0336,0203,0335,0337,0203,0203,0335,0336,0336,0203,0363,0335,0337,0337,0330,0330,0337,",
        "0223:0304,0320,0313,0334,0336,0336,0336,0362,0203,0335,0337,0337,0203,0336,0203,0334,0336,0203,0335,0310,0350,0335,0337,0203,0203,0335,0335,0203,0203,0335,0335,0335,0336,0203,0313,0304,0334,0337,0337,0203,0336,0203,0335,0336,0203,0363,0335,0337,0337,0337,0330,",
        "0224:0304,0313,0320,0336,0336,0336,0333,0337,0350,0334,0334,0362,0203,0331,0335,0345,0333,0334,0334,0334,0203,0363,0335,0335,0335,0335,0336,0330,0335,0335,0304,0337,0337,0337,",
        "0225:0313,0304,0320,0336,0336,0336,0332,0337,0335,0362,0203,0331,0350,0334,0346,0332,0335,0335,0335,0203,0363,0334,0334,0334,0334,0304,0336,0330,0334,0337,0337,0337,",
        "0226:0321,0341,0320,",
        "01220:0333,0200,0336,0332,0330,0220,0333,0331,0337,",
        "01221:0333,0200,0336,0332,0336,0330,0337,0220,0221,0333,0331,0331,0336,0330,0337,0337,",
        "01222:0333,0200,0336,0332,0337,0222,0336,0333,0337,0331,",
        "01223:0333,0200,0336,0332,0337,0223,0336,0333,0337,0331,",
        "01224:0333,0200,0336,0332,0336,0332,0337,0222,0224,0223,0334,0336,0333,0331,0331,0336,0336,0332,0331,0337,0337,0337,0337,",
        "01225:0333,0200,0336,0336,0333,0337,0332,0222,0225,0223,0335,0331,0333,0336,0333,0336,0336,0333,0331,0337,0337,0337,0337,",
        "01226:0333,0200,0336,0330,0332,0226,0333,0331,0337,",
        "01230:0333,0200,0336,0330,0332,0230,0331,0304,0333,0337,",
        "01231:0333,0200,0332,0336,0330,0231,0335,0331,0334,0331,0331,0304,0337,0333,",
        "01232:0333,0200,0332,0336,0336,0232,0335,0331,0334,0331,0335,0331,0334,0331,0335,0331,0334,0331,0304,0337,0337,0333,",
        "01233:0333,0200,0336,0332,0337,0233,0304,0336,0333,0337,"
    ]
}
</json>
-->
	<path d = "M672 399 L697 399 M671.5 374           A25 25 0 0 1 696.5 399L672 399 Z" stroke = "black" stroke-width = "1" fill = "black" />	<path d = "M672 387 L672 399 L622 399 L572 399 L572 374 L622 374 L672 374 L672 387 Z" stroke = "black" stroke-width = "1" fill = "black" />	<path d = "M572 387 L572 399 L522 399 L472 399 L472 374 L522 374 L572 374 L572 387 Z" stroke = "black" stroke-width = "1" fill = "black" />	<path d = "M472 387 L472 399 L422 399 L372 399 L372 374 L422 374 L472 374 L472 387 Z" stroke = "black" stroke-width = "1" fill = "black" />	<path d = "M371 374 L372 399 M371.5 399.0000000000001           A25 25 0 0 1 346.49999999999994 374.0000000000001L371 374 Z" stroke = "black" stroke-width = "1" fill = "black" />	<path d = "M359 374 L346 374 L347 324 L347 274 L372 274 L372 324 L371 374 L359 374 Z" stroke = "black" stroke-width = "1" fill = "black" />	<path d = "M359 274 L347 274 L347 224 L347 174 L372 174 L372 224 L372 274 L359 274 Z" stroke = "black" stroke-width = "1" fill = "black" />	<path d = "M372 174 L347 174 M346.5000000000012 173.99999999999983           A25 25 0 0 1 371.5000000000015 149.00000000000006L372 174 Z" stroke = "black" stroke-width = "1" fill = "black" />	<path d = "M372 162 L372 149 L422 149 L472 149 L472 174 L422 174 L372 174 L372 161 Z" stroke = "black" stroke-width = "1" fill = "black" />	<path d = "M472 162 L472 149 L522 149 L572 149 L572 174 L522 174 L472 174 L472 162 Z" stroke = "black" stroke-width = "1" fill = "black" />	<path d = "M572 162 L572 149 L622 149 L672 149 L672 174 L622 174 L572 174 L572 162 Z" stroke = "black" stroke-width = "1" fill = "black" />	<path d = "M672 162 L672 149 L722 149 L772 149 L772 174 L722 174 L672 174 L672 162 Z" stroke = "black" stroke-width = "1" fill = "black" />	<path d = "M772 162 L772 149 L822 149 L872 149 L872 174 L822 174 L772 174 L772 162 Z" stroke = "black" stroke-width = "1" fill = "black" />	<path d = "M872 162 L872 149 L922 149 L972 149 L972 174 L922 174 L872 174 L872 162 Z" stroke = "black" stroke-width = "1" fill = "black" />	<path d = "M972 174 L972 149 M971.5000000000018 149.00000000001876           A25 25 0 0 1 996.5000000000009 174.00000000001958L972 174 Z" stroke = "black" stroke-width = "1" fill = "black" />	<path d = "M984 174 L997 174 L996 224 L996 249 L1009 249 L996 262 L984 274 L971 262 L959 249 L971 249 L971 199 L971 174 L984 174 Z" stroke = "black" stroke-width = "1" fill = "black" />	<path d = "M984 274 L996 274 L996 324 L996 349 L1009 349 L996 362 L984 374 L971 362 L959 349 L971 349 L971 299 L971 274 L984 274 Z" stroke = "black" stroke-width = "1" fill = "black" />	<path d = "M984 374 L997 374 L997 424 L997 449 L1009 449 L997 462 L984 474 L972 462 L959 449 L972 449 L971 399 L971 374 L984 374 Z" stroke = "black" stroke-width = "1" fill = "black" />	<path d = "M984 474 L997 474 L997 524 L997 549 L1009 549 L997 562 L984 574 L972 562 L959 549 L972 549 L972 499 L972 474 L984 474 Z" stroke = "black" stroke-width = "1" fill = "black" />    <circle cx="984" cy = "574" r = "100" stroke = "black" stroke-width = "6" fill = "none" />
	<path d = "M972 574 L997 574 M996.5000000000075 574.0000000000181           A25 25 0 0 1 971.500000000009 599.0000000000194L972 574 Z" stroke = "black" stroke-width = "1" fill = "black" />	<path d = "M972 587 L972 599 L922 599 L872 599 L872 574 L922 574 L972 574 L972 587 Z" stroke = "black" stroke-width = "1" fill = "black" />	<path d = "M872 587 L872 599 L822 599 L772 599 L772 574 L822 574 L872 574 L872 587 Z" stroke = "black" stroke-width = "1" fill = "black" />	<path d = "M772 587 L772 599 L722 599 L672 599 L672 574 L722 574 L772 574 L772 587 Z" stroke = "black" stroke-width = "1" fill = "black" />	<path d = "M672 587 L672 599 L622 599 L572 599 L572 574 L622 574 L672 574 L672 587 Z" stroke = "black" stroke-width = "1" fill = "black" />	<path d = "M572 587 L572 599 L522 599 L472 599 L472 574 L522 574 L572 574 L572 587 Z" stroke = "black" stroke-width = "1" fill = "black" />	<path d = "M472 587 L472 599 L422 599 L372 599 L372 574 L422 574 L472 574 L472 587 Z" stroke = "black" stroke-width = "1" fill = "black" /></svg>