<svg width="1368" height="798" viewbox = "0 0 1368 798"  xmlns="http://www.w3.org/2000/svg">

<!--
<json>
{
    "svgwidth": 1368,
    "svgheight": 798,
    "unit": 100,
    "x0": 684,
    "y0": 399,
    "x0rel": 0,
    "y0rel": 0,
    "glyph": "0336,0336,0332,0332,0332,0332,0332,0332,0332,0332,0332,0332,0332,0332,0330,0330,0225,0335,0225,0335,0225,0335,0225,0335,0225,0335,0225,",
    "table": [
        "0220:0304,0313,0210,0210,0336,0333,0331,0337,0204,0336,0330,0332,0337,0211,0211,",
        "0221:0304,0313,0330,0220,",
        "0222:0220,0221,0221,0221,",
        "0223:0304,0313,0336,0333,0334,0337,0362,0203,0335,0203,0203,0334,0336,0203,0335,0350,0335,0310,0337,0203,0203,0335,0335,0203,0203,0335,0335,0335,0336,0203,0304,0313,0334,0203,0203,0203,0203,0363,0335,0335,0332,0337,0330,0330,0330,",
        "0224:0230,",
        "0225:0224,0330,0333,0224,0330,0333,0224,0330,0333,0224,0330,0333,0224,0330,0333,0224,0330,0333,",
        "0226:0232,",
        "0230:0313,0210,0210,0306,0330,0335,0335,0362,0203,0335,0203,0335,0203,0335,0203,0335,0203,0335,0203,0363,0334,0331,0211,0211,",
        "0231:0230,0333,0330,0230,",
        "0232:0231,0231,0231,",
        "0233:0313,0306,0362,0203,0335,0335,0203,0335,0335,0203,0335,0335,0363,",
        "01220:0333,0200,0332,0336,0333,0330,0220,0333,0331,0337,",
        "01221:0333,0200,0336,0332,0337,0221,0336,0333,0337,0331,",
        "01222:0333,0200,0336,0332,0222,0331,0331,0331,0333,0337,",
        "01223:0333,0200,0336,0332,0223,0331,0331,0331,0333,0337,",
        "01224:0333,0200,0336,0330,0332,0224,0304,0333,0331,0337,",
        "01225:0333,0200,0336,0332,0332,0225,0331,0331,0334,0330,0335,0331,0331,0331,0331,0332,0332,0331,0331,0331,0331,0332,0332,0331,0331,0331,0332,0330,0337,0304,0333,",
        "01226:0333,0200,0336,0336,0332,0332,0332,0332,0226,0331,0335,0331,0334,0331,0335,0331,0334,0331,0335,0331,0334,0304,0337,0337,0333,",
        "01230:0333,0200,0336,0330,0332,0230,0331,0304,0333,0337,",
        "01231:0333,0200,0332,0336,0330,0231,0335,0331,0334,0331,0331,0304,0337,0333,",
        "01232:0333,0200,0332,0336,0336,0232,0335,0331,0334,0331,0335,0331,0334,0331,0335,0331,0334,0331,0304,0337,0337,0333,",
        "01233:0333,0200,0336,0332,0337,0233,0304,0336,0333,0337,"
    ]
}
</json>
-->
	<path d = "M384 330 L401 339 L401 359 L384 368 L367 359 L367 339 L384 330 Z" stroke = "black" stroke-width = "2" fill = "black" />	<path d = "M406 292 L422 302 L422 321 L406 331 L389 321 L389 302 L406 292 Z" stroke = "black" stroke-width = "2" fill = "black" />	<path d = "M427 255 L444 264 L444 284 L427 293 L411 284 L411 264 L427 255 Z" stroke = "black" stroke-width = "2" fill = "black" />	<path d = "M449 217 L465 227 L465 246 L449 256 L432 246 L432 227 L449 217 Z" stroke = "black" stroke-width = "2" fill = "black" />	<path d = "M471 180 L487 189 L487 209 L471 218 L454 209 L454 189 L471 180 Z" stroke = "black" stroke-width = "2" fill = "black" />	<path d = "M492 142 L509 152 L509 171 L492 181 L476 171 L476 152 L492 142 Z" stroke = "black" stroke-width = "2" fill = "black" />	<path d = "M530 114 L530 134 L514 143 L497 134 L497 114 L514 105 L530 114 Z" stroke = "black" stroke-width = "2" fill = "black" />	<path d = "M574 114 L574 134 L557 143 L541 134 L541 114 L557 105 L574 114 Z" stroke = "black" stroke-width = "2" fill = "black" />	<path d = "M617 114 L617 134 L601 143 L584 134 L584 114 L601 105 L617 114 Z" stroke = "black" stroke-width = "2" fill = "black" />	<path d = "M660 114 L660 134 L644 143 L627 134 L627 114 L644 105 L660 114 Z" stroke = "black" stroke-width = "2" fill = "black" />	<path d = "M704 114 L704 134 L687 143 L671 134 L671 114 L687 105 L704 114 Z" stroke = "black" stroke-width = "2" fill = "black" />	<path d = "M747 114 L747 134 L730 143 L714 134 L714 114 L730 105 L747 114 Z" stroke = "black" stroke-width = "2" fill = "black" />	<path d = "M790 134 L774 143 L757 134 L757 114 L774 105 L790 114 L790 134 Z" stroke = "black" stroke-width = "2" fill = "black" />	<path d = "M812 171 L795 181 L779 171 L779 152 L795 142 L812 152 L812 171 Z" stroke = "black" stroke-width = "2" fill = "black" />	<path d = "M834 209 L817 218 L800 209 L800 189 L817 180 L834 189 L834 209 Z" stroke = "black" stroke-width = "2" fill = "black" />	<path d = "M855 246 L839 256 L822 246 L822 227 L839 217 L855 227 L855 246 Z" stroke = "black" stroke-width = "2" fill = "black" />	<path d = "M877 284 L860 293 L844 284 L844 264 L860 255 L877 264 L877 284 Z" stroke = "black" stroke-width = "2" fill = "black" />	<path d = "M899 321 L882 331 L865 321 L865 302 L882 292 L899 302 L899 321 Z" stroke = "black" stroke-width = "2" fill = "black" />	<path d = "M904 368 L887 359 L887 339 L904 330 L920 339 L920 359 L904 368 Z" stroke = "black" stroke-width = "2" fill = "black" />	<path d = "M882 406 L865 396 L865 377 L882 367 L899 377 L899 396 L882 406 Z" stroke = "black" stroke-width = "2" fill = "black" />	<path d = "M860 443 L844 434 L844 414 L860 405 L877 414 L877 434 L860 443 Z" stroke = "black" stroke-width = "2" fill = "black" />	<path d = "M839 481 L822 471 L822 452 L839 442 L855 452 L855 471 L839 481 Z" stroke = "black" stroke-width = "2" fill = "black" />	<path d = "M817 518 L800 509 L800 489 L817 480 L834 489 L834 509 L817 518 Z" stroke = "black" stroke-width = "2" fill = "black" />	<path d = "M795 556 L779 546 L779 527 L795 517 L812 527 L812 546 L795 556 Z" stroke = "black" stroke-width = "2" fill = "black" />	<path d = "M757 584 L757 564 L774 555 L790 564 L790 584 L774 593 L757 584 Z" stroke = "black" stroke-width = "2" fill = "black" />	<path d = "M714 584 L714 564 L730 555 L747 564 L747 584 L730 593 L714 584 Z" stroke = "black" stroke-width = "2" fill = "black" />	<path d = "M671 584 L671 564 L687 555 L704 564 L704 584 L687 593 L671 584 Z" stroke = "black" stroke-width = "2" fill = "black" />	<path d = "M627 584 L627 564 L644 555 L660 564 L660 584 L644 593 L627 584 Z" stroke = "black" stroke-width = "2" fill = "black" />	<path d = "M584 584 L584 564 L601 555 L617 564 L617 584 L601 593 L584 584 Z" stroke = "black" stroke-width = "2" fill = "black" />	<path d = "M541 584 L541 564 L557 555 L574 564 L574 584 L557 593 L541 584 Z" stroke = "black" stroke-width = "2" fill = "black" />	<path d = "M497 564 L514 555 L530 564 L530 584 L514 593 L497 584 L497 564 Z" stroke = "black" stroke-width = "2" fill = "black" />	<path d = "M476 527 L492 517 L509 527 L509 546 L492 556 L476 546 L476 527 Z" stroke = "black" stroke-width = "2" fill = "black" />	<path d = "M454 489 L471 480 L487 489 L487 509 L471 518 L454 509 L454 489 Z" stroke = "black" stroke-width = "2" fill = "black" />	<path d = "M432 452 L449 442 L465 452 L465 471 L449 481 L432 471 L432 452 Z" stroke = "black" stroke-width = "2" fill = "black" />	<path d = "M411 414 L427 405 L444 414 L444 434 L427 443 L411 434 L411 414 Z" stroke = "black" stroke-width = "2" fill = "black" />	<path d = "M389 377 L406 367 L422 377 L422 396 L406 406 L389 396 L389 377 Z" stroke = "black" stroke-width = "2" fill = "black" /></svg>