<svg width="1368" height="798" viewbox = "0 0 1368 798"  xmlns="http://www.w3.org/2000/svg">

<!--
<json>
{
    "svgwidth": 1368,
    "svgheight": 798,
    "unit": 146.41000000000008,
    "x0": 684,
    "y0": 614,
    "x0rel": 0,
    "y0rel": 215,
    "glyph": "0341,0332,0341,0330,0341,0336,0331,0341,0331,0333,0341,0232,0336,0230,0232,0335,0232,",
    "table": []
}
</json>
-->
    <circle cx="684" cy = "614" r = "146.41000000000008" stroke = "black" stroke-width = "4" fill = "none" />
    <circle cx="538" cy = "614" r = "146.41000000000008" stroke = "black" stroke-width = "4" fill = "none" />
    <circle cx="538" cy = "468" r = "146.41000000000008" stroke = "black" stroke-width = "4" fill = "none" />
    <circle cx="538" cy = "541" r = "73.20500000000004" stroke = "black" stroke-width = "4" fill = "none" />
    <circle cx="611" cy = "614" r = "73.20500000000004" stroke = "black" stroke-width = "4" fill = "none" />
	<path d = "M611 558 L659 586 L659 642 L611 670 L562 642 L562 586 L611 558 Z" stroke = "black" stroke-width = "4" fill = "black" />	<path d = "M674 448 L723 476 L723 532 L674 560 L626 532 L626 476 L674 448 Z" stroke = "black" stroke-width = "4" fill = "black" />	<path d = "M674 448 L723 476 L723 532 L674 560 L626 532 L626 476 L674 448 Z" stroke = "black" stroke-width = "4" fill = "black" />	<path d = "M738 338 L786 366 L786 422 L738 450 L689 422 L689 366 L738 338 Z" stroke = "black" stroke-width = "4" fill = "black" />	<path d = "M738 338 L786 366 L786 422 L738 450 L689 422 L689 366 L738 338 Z" stroke = "black" stroke-width = "4" fill = "black" />	<path d = "M801 229 L849 257 L849 313 L801 341 L753 313 L753 257 L801 229 Z" stroke = "black" stroke-width = "4" fill = "black" />	<path d = "M801 257 L825 271 L825 299 L801 313 L777 299 L777 271 L801 257 Z" stroke = "black" stroke-width = "4" fill = "black" />	<path d = "M801 257 L825 271 L825 299 L801 313 L777 299 L777 271 L801 257 Z" stroke = "black" stroke-width = "4" fill = "black" />	<path d = "M833 202 L857 216 L857 244 L833 258 L808 244 L808 216 L833 202 Z" stroke = "black" stroke-width = "4" fill = "black" />	<path d = "M833 202 L857 216 L857 244 L833 258 L808 244 L808 216 L833 202 Z" stroke = "black" stroke-width = "4" fill = "black" />	<path d = "M864 147 L889 161 L889 189 L864 203 L840 189 L840 161 L864 147 Z" stroke = "black" stroke-width = "4" fill = "black" />	<path d = "M864 147 L889 161 L889 189 L864 203 L840 189 L840 161 L864 147 Z" stroke = "black" stroke-width = "4" fill = "black" />	<path d = "M896 92 L920 106 L920 134 L896 148 L872 134 L872 106 L896 92 Z" stroke = "black" stroke-width = "4" fill = "black" />	<path d = "M920 106 L920 134 L896 148 L872 134 L872 106 L896 92 L920 106 Z" stroke = "black" stroke-width = "4" fill = "black" />	<path d = "M984 106 L984 134 L959 148 L935 134 L935 106 L959 92 L984 106 Z" stroke = "black" stroke-width = "4" fill = "black" />	<path d = "M984 106 L984 134 L959 148 L935 134 L935 106 L959 92 L984 106 Z" stroke = "black" stroke-width = "4" fill = "black" />	<path d = "M1047 106 L1047 134 L1023 148 L999 134 L999 106 L1023 92 L1047 106 Z" stroke = "black" stroke-width = "4" fill = "black" />	<path d = "M1047 106 L1047 134 L1023 148 L999 134 L999 106 L1023 92 L1047 106 Z" stroke = "black" stroke-width = "4" fill = "black" />	<path d = "M1110 106 L1110 134 L1086 148 L1062 134 L1062 106 L1086 92 L1110 106 Z" stroke = "black" stroke-width = "4" fill = "black" /></svg>