<svg width="1231" height="718" viewbox = "0 0 1231 718"  xmlns="http://www.w3.org/2000/svg">

<!--
<json>
{
    "svgwidth": 1231,
    "svgheight": 718,
    "unit": 100,
    "x0": 615.5,
    "y0": 359,
    "x0rel": 0,
    "y0rel": 0,
    "glyph": "0336,0332,0337,0226,0333,0226,0336,0332,0337,0333,0333,0336,0333,0336,0332,0337,0337,0222,0222,0225,0222,0222,0222,0222,0225,0222,0222,0222,0222,0225,0222,0222,0222,0222,0225,0222,0222,",
    "table": [
        "0220:0304,0313,0210,0210,0336,0333,0331,0337,0204,0336,0330,0332,0337,0211,0211,",
        "0221:0304,0313,0330,0220,",
        "0222:0313,0304,0336,0334,0336,0336,0362,0203,0335,0337,0337,0203,0203,0335,0336,0203,0335,0337,0203,0203,0335,0336,0336,0203,0363,0335,0337,0337,0330,0330,0337,",
        "0223:0304,0313,0334,0336,0336,0336,0362,0203,0335,0337,0337,0203,0336,0203,0334,0336,0203,0335,0310,0350,0335,0337,0203,0203,0335,0335,0203,0203,0335,0335,0335,0336,0203,0313,0304,0334,0337,0337,0203,0336,0203,0335,0336,0203,0363,0335,0337,0337,0337,0330,",
        "0224:0304,0313,0336,0336,0336,0333,0337,0350,0334,0334,0362,0203,0331,0335,0345,0333,0334,0334,0334,0203,0363,0335,0335,0335,0335,0336,0330,0335,0335,0304,0337,0337,0337,",
        "0225:0313,0304,0336,0336,0336,0332,0337,0335,0362,0203,0331,0350,0334,0346,0332,0335,0335,0335,0203,0363,0334,0334,0334,0334,0304,0336,0330,0334,0337,0337,0337,",
        "0226:0321,0341,0320,",
        "0227:0333,0331,0337,0321,0200,0336,0332,0337,0320,0342,0336,0333,0330,0334,0337,0342,0335,0336,0332,",
        "0230:0312,0336,0330,0335,0337,0321,0306,0362,0203,0335,0335,0203,0203,0335,0335,0203,0203,0335,0335,0203,0354,0304,0334,0306,0335,0335,0350,0335,0320,0362,0203,0335,0335,0335,0335,0203,0335,0335,0335,0335,0203,0354,0334,0304,0312,0336,0331,0337,0313,",
        "0231:0331,0333,0334,0321,0337,0305,0311,0362,0203,0335,0350,0335,0337,0203,0335,0335,0335,0335,0203,0354,0335,0335,0335,0335,0320,0336,0201,0335,0335,0335,0335,0336,0201,0334,0334,0334,0334,0201,0335,0335,0335,0335,0336,0201,0334,0334,0334,0334,0201,0335,0335,0335,0335,0336,0201,0334,0334,0334,0334,0201,0331,0335,0335,0335,0335,0331,0334,0334,0334,0334,0337,0331,0335,0335,0335,0335,0337,0336,0331,0334,0334,0334,0334,0337,0331,0335,0335,0335,0335,0331,0334,0334,0334,0334,0337,0331,0335,0334,0334,0313,0336,0330,0304,0335,0337,0336,0330,",
        "0232:0331,0333,0334,0305,0337,0311,0335,0337,0321,0362,0203,0335,0335,0336,0203,0335,0203,0354,0335,0335,0320,0350,0335,0330,0334,0334,0334,0336,0201,0335,0335,0335,0336,0201,0334,0334,0336,0334,0201,0335,0335,0335,0336,0201,0334,0334,0334,0336,0201,0331,0335,0335,0335,0337,0331,0335,0335,0337,0330,0335,0335,0335,0337,0330,0334,0334,0334,0337,0330,0335,0335,0335,0337,0330,0335,0335,0313,0336,0304,0335,0332,0330,",
        "0233:0321,0350,0310,0362,0203,0203,0335,0335,0335,0337,0203,0203,0335,0335,0335,0336,0203,0203,0354,0335,0335,0335,0320,0337,0201,0334,0334,0334,0336,0201,0335,0335,0335,0336,0201,0334,0334,0334,0336,0201,0335,0335,0335,0336,0201,0334,0334,0334,0336,0201,0335,0335,0335,0336,0201,0331,0337,0333,0337,0331,0337,0333,0337,0331,0337,0333,0337,0331,0334,0336,0304,0313,",
        "0234:0320,0304,0313,0332,0332,0335,0321,0337,0362,0203,0334,0312,0336,0203,0306,0334,0334,0313,0337,0203,0354,0350,0335,0336,0312,0337,0331,0335,0335,0336,0313,0336,0312,0337,0320,0201,0334,0334,0334,0334,0335,0334,0201,0335,0335,0336,0335,0201,0334,0334,0334,0336,0201,0335,0335,0335,0336,0201,0331,0335,0335,0337,0333,0334,0334,0337,0331,0335,0335,0335,0337,0330,0334,0334,0331,0313,0337,0313,0334,0334,0336,0304,0304,0313,0335,",
        "0235:0332,0321,0337,0362,0203,0335,0311,0337,0203,0335,0336,0203,0335,0337,0203,0354,0335,0336,0333,0200,0350,0334,0343,0335,0330,0336,0331,0335,0343,0335,0342,0334,0335,0330,0336,0331,0335,0343,0335,0342,0330,0336,0331,0335,0343,0335,0342,0330,0336,0331,0335,0343,0335,0342,0330,0336,0331,0335,0343,0335,0342,0334,0334,0330,0337,0331,0335,0335,0331,0334,0334,0337,0331,0335,0335,0337,0337,0337,0331,0334,0334,0304,0313,0336,0333,0320,",
        "0236:0335,0331,0337,0321,0305,0362,0203,0335,0335,0203,0335,0335,0203,0335,0335,0203,0335,0335,0203,0354,0335,0350,0335,0311,0336,0362,0203,0335,0335,0203,0335,0335,0203,0335,0335,0203,0335,0335,0203,0354,0335,0335,0335,0337,0313,0336,0330,0304,0334,0320,",
        "0237:0330,0306,0335,0335,0321,0362,0203,0335,0203,0335,0203,0335,0203,0335,0203,0335,0203,0335,0354,0330,0335,0335,0350,0335,0312,0337,0362,0203,0334,0334,0334,0334,0203,0334,0334,0334,0334,0203,0354,0334,0336,0331,0334,0337,0362,0203,0334,0334,0334,0334,0203,0334,0334,0334,0334,0203,0354,0334,0336,0331,0334,0334,0330,0304,0313,0320,",
        "0240:0331,0321,0334,0336,0362,0203,0335,0337,0203,0203,0334,0336,0203,0335,0350,0310,0335,0337,0203,0203,0335,0335,0203,0203,0335,0335,0335,0336,0203,0313,0304,0334,0203,0203,0203,0203,0335,0203,0354,0335,0337,0330,0320,",
        "0241:0306,0362,0203,0335,0335,0203,0335,0335,0203,0363,0335,0335,0304,",
        "0242:0241,0333,0336,0333,0337,0241,0336,0333,0337,0333,0241,0333,0336,0333,0337,",
        "0243:0313,0304,0320,0350,0310,0335,0337,0362,0203,0335,0336,0203,0335,0335,0335,0337,0203,0335,0336,0203,0363,0335,0335,0324,0362,0203,0335,0335,0203,0335,0335,0335,0337,0203,0363,0335,0336,0331,0335,0335,0335,0337,0362,0203,0335,0335,0335,0336,0203,0335,0335,0203,0363,0320,0331,0335,0335,0304,0313,",
        "0244:0243,0243,0243,0243,",
        "0245:0321,0337,0201,0320,0336,0334,0336,0336,0306,0336,0362,0203,0335,0335,0337,0203,0335,0335,0203,0335,0335,0336,0203,0363,0304,0335,0337,0337,0337,0337,0331,0336,",
        "0246:0320,0335,0306,0350,0334,0330,0321,0337,0366,0336,0331,0335,0335,0330,0337,0336,0336,0336,0336,0336,0330,0337,0337,0337,0337,0337,0367,0336,0336,0336,0336,0336,0331,0335,0337,0320,0337,0362,0203,0334,0334,0334,0334,0203,0334,0334,0334,0334,0203,0363,0335,0337,0337,0330,0335,0335,0304,",
        "0247:0336,0336,0336,0347,0337,0337,0337,",
        "01220:0333,0200,0336,0332,0330,0220,0333,0331,0337,",
        "01221:0333,0200,0336,0332,0336,0330,0337,0220,0221,0333,0331,0331,0336,0330,0337,0337,",
        "01222:0333,0200,0336,0332,0337,0222,0336,0333,0337,0331,",
        "01223:0333,0200,0336,0332,0337,0223,0336,0333,0337,0331,",
        "01224:0333,0200,0336,0332,0336,0332,0337,0222,0224,0223,0334,0336,0333,0331,0331,0336,0336,0332,0331,0337,0337,0337,0337,",
        "01225:0333,0200,0336,0336,0333,0337,0332,0222,0225,0223,0335,0331,0333,0336,0333,0336,0336,0333,0331,0337,0337,0337,0337,",
        "01226:0333,0200,0336,0330,0332,0226,0333,0331,0337,",
        "01227:0333,0200,0336,0330,0332,0210,0227,0211,0331,0333,0337,",
        "01230:0333,0200,0336,0330,0332,0230,0331,0304,0333,0337,",
        "01231:0333,0200,0332,0336,0330,0333,0231,0333,0331,0337,",
        "01232:0333,0200,0336,0332,0330,0332,0232,0333,0331,0333,0337,",
        "01233:0333,0200,0336,0332,0337,0336,0332,0336,0336,0333,0330,0337,0337,0210,0210,0233,0211,0211,0313,0336,0336,0332,0332,0333,0331,0337,0337,0337,0333,",
        "01234:0333,0200,0336,0234,0337,",
        "01235:0333,0200,0336,0332,0336,0330,0332,0235,0333,0333,0333,0336,0336,0331,0331,0331,0331,0337,0337,0337,0337,",
        "01236:0333,0200,0336,0330,0330,0332,0336,0331,0337,0236,0333,0331,0331,0336,0330,0337,0337,",
        "01237:0333,0200,0336,0330,0332,0237,0333,0331,0337,",
        "01240:0333,0200,0336,0336,0332,0332,0240,0333,0333,0337,0337,",
        "01241:0333,0200,0336,0332,0241,0333,0337,",
        "01242:0333,0200,0336,0332,0332,0336,0330,0330,0242,0336,0331,0331,0331,0331,0332,0337,0337,0337,",
        "01243:0333,0200,0336,0332,0332,0243,0337,",
        "01244:0333,0200,0332,0336,0330,0336,0336,0243,0243,0243,0243,0331,0331,0331,0331,0337,0337,0337,",
        "01245:0333,0200,0336,0332,0336,0331,0337,0245,0333,0336,0330,0337,0337,",
        "01246:0333,0200,0330,0332,0336,0331,0336,0332,0337,0246,0333,0333,0336,0333,0331,0331,0337,0337,",
        "01247:0333,0200,0336,0330,0332,0337,0247,0336,0333,0331,0337,"
    ]
}
</json>
-->
    <circle cx="566" cy = "359" r = "100" stroke = "black" stroke-width = "6" fill = "none" />
    <circle cx="666" cy = "359" r = "100" stroke = "black" stroke-width = "6" fill = "none" />
	<path d = "M841 359 L828 359 L828 309 L828 259 L853 259 L853 309 L853 359 L841 359 Z" stroke = "black" stroke-width = "1" fill = "black" />	<path d = "M841 259 L828 259 L828 209 L828 159 L853 159 L853 209 L853 259 L841 259 Z" stroke = "black" stroke-width = "1" fill = "black" />	<path d = "M828 159 L853 159 M828 134           A25 25 0 0 1 853 159L828 159 Z" stroke = "black" stroke-width = "1" fill = "black" />	<path d = "M828 147 L828 159 L778 159 L728 159 L728 134 L778 134 L828 134 L828 147 Z" stroke = "black" stroke-width = "1" fill = "black" />	<path d = "M728 147 L728 159 L678 159 L628 159 L628 134 L678 134 L728 134 L728 147 Z" stroke = "black" stroke-width = "1" fill = "black" />	<path d = "M628 147 L628 159 L578 159 L528 159 L528 134 L578 134 L628 134 L628 147 Z" stroke = "black" stroke-width = "1" fill = "black" />	<path d = "M528 146 L528 159 L478 159 L428 159 L428 134 L478 134 L528 134 L528 146 Z" stroke = "black" stroke-width = "1" fill = "black" />	<path d = "M428 159 L428 134 M402.9999999999996 158.99999999999758           A25 25 0 0 1 428.00000000000006 133.99999999999818L428 159 Z" stroke = "black" stroke-width = "1" fill = "black" />	<path d = "M415 159 L428 159 L428 209 L428 259 L403 259 L403 209 L403 159 L415 159 Z" stroke = "black" stroke-width = "1" fill = "black" />	<path d = "M415 259 L428 259 L428 309 L428 359 L403 359 L403 309 L403 259 L415 259 Z" stroke = "black" stroke-width = "1" fill = "black" />	<path d = "M415 359 L428 359 L428 409 L428 459 L403 459 L403 409 L403 359 L415 359 Z" stroke = "black" stroke-width = "1" fill = "black" />	<path d = "M415 459 L428 459 L428 509 L428 559 L403 559 L403 509 L403 459 L415 459 Z" stroke = "black" stroke-width = "1" fill = "black" />	<path d = "M428 559 L403 559 M427.9999999999841 583.9999999999982           A25 25 0 0 1 402.9999999999855 558.9999999999969L428 559 Z" stroke = "black" stroke-width = "1" fill = "black" />	<path d = "M428 571 L428 559 L478 559 L528 559 L528 584 L478 584 L428 584 L428 571 Z" stroke = "black" stroke-width = "1" fill = "black" />	<path d = "M528 572 L528 559 L578 559 L628 559 L628 584 L578 584 L528 584 L528 572 Z" stroke = "black" stroke-width = "1" fill = "black" />	<path d = "M628 572 L628 559 L678 559 L728 559 L728 584 L678 584 L628 584 L628 572 Z" stroke = "black" stroke-width = "1" fill = "black" />	<path d = "M728 572 L728 559 L778 559 L828 559 L828 584 L778 584 L728 584 L728 572 Z" stroke = "black" stroke-width = "1" fill = "black" />	<path d = "M828 559 L828 584 M852.9999999999845 559.0000000000144           A25 25 0 0 1 827.9999999999845 584.0000000000143L828 559 Z" stroke = "black" stroke-width = "1" fill = "black" />	<path d = "M840 559 L828 559 L828 509 L828 459 L853 459 L853 509 L853 559 L840 559 Z" stroke = "black" stroke-width = "1" fill = "black" />	<path d = "M840 459 L828 459 L828 409 L828 359 L853 359 L853 409 L853 459 L840 459 Z" stroke = "black" stroke-width = "1" fill = "black" /></svg>