<svg width="1231" height="718" viewbox = "0 0 1231 718"  xmlns="http://www.w3.org/2000/svg">

<!--
<json>
{
    "svgwidth": 1231,
    "svgheight": 718,
    "unit": 100,
    "x0": 615.5,
    "y0": 359,
    "x0rel": 0,
    "y0rel": 0,
    "glyph": "0336,0336,0332,0332,0332,0332,0332,0332,0332,0332,0332,0332,0332,0332,0330,0330,0225,0335,0225,0335,0225,0335,0225,0335,0225,0335,0225,",
    "table": [
        "0220:0304,0313,0210,0210,0336,0333,0331,0337,0204,0336,0330,0332,0337,0211,0211,",
        "0221:0304,0313,0330,0220,",
        "0222:0220,0221,0221,0221,",
        "0223:0304,0313,0336,0333,0334,0337,0362,0203,0335,0203,0203,0334,0336,0203,0335,0350,0335,0310,0337,0203,0203,0335,0335,0203,0203,0335,0335,0335,0336,0203,0304,0313,0334,0203,0203,0203,0203,0363,0335,0335,0332,0337,0330,0330,0330,",
        "0224:0230,",
        "0225:0224,0330,0333,0224,0330,0333,0224,0330,0333,0224,0330,0333,0224,0330,0333,0224,0330,0333,",
        "0226:0232,",
        "0230:0313,0210,0210,0306,0330,0335,0335,0362,0203,0335,0203,0335,0203,0335,0203,0335,0203,0335,0203,0363,0334,0331,0211,0211,",
        "0231:0230,0333,0330,0230,",
        "0232:0231,0231,0231,",
        "0233:0313,0306,0362,0203,0335,0335,0203,0335,0335,0203,0335,0335,0363,",
        "01220:0333,0200,0332,0336,0333,0330,0220,0333,0331,0337,",
        "01221:0333,0200,0336,0332,0337,0221,0336,0333,0337,0331,",
        "01222:0333,0200,0336,0332,0222,0331,0331,0331,0333,0337,",
        "01223:0333,0200,0336,0332,0223,0331,0331,0331,0333,0337,",
        "01224:0333,0200,0336,0330,0332,0224,0304,0333,0331,0337,",
        "01225:0333,0200,0336,0332,0332,0225,0331,0331,0334,0330,0335,0331,0331,0331,0331,0332,0332,0331,0331,0331,0331,0332,0332,0331,0331,0331,0332,0330,0337,0304,0333,",
        "01226:0333,0200,0336,0336,0332,0332,0332,0332,0226,0331,0335,0331,0334,0331,0335,0331,0334,0331,0335,0331,0334,0304,0337,0337,0333,",
        "01230:0333,0200,0336,0330,0332,0230,0331,0304,0333,0337,",
        "01231:0333,0200,0332,0336,0330,0231,0335,0331,0334,0331,0331,0304,0337,0333,",
        "01232:0333,0200,0332,0336,0336,0232,0335,0331,0334,0331,0335,0331,0334,0331,0335,0331,0334,0331,0304,0337,0337,0333,",
        "01233:0333,0200,0336,0332,0337,0233,0304,0336,0333,0337,"
    ]
}
</json>
-->
	<path d = "M316 290 L332 299 L332 319 L316 328 L299 319 L299 299 L316 290 Z" stroke = "black" stroke-width = "2" fill = "black" />	<path d = "M337 252 L354 262 L354 281 L337 291 L321 281 L321 262 L337 252 Z" stroke = "black" stroke-width = "2" fill = "black" />	<path d = "M359 215 L375 224 L375 244 L359 253 L342 244 L342 224 L359 215 Z" stroke = "black" stroke-width = "2" fill = "black" />	<path d = "M380 177 L397 187 L397 206 L380 216 L364 206 L364 187 L380 177 Z" stroke = "black" stroke-width = "2" fill = "black" />	<path d = "M402 140 L419 149 L419 169 L402 178 L386 169 L386 149 L402 140 Z" stroke = "black" stroke-width = "2" fill = "black" />	<path d = "M424 102 L440 112 L440 131 L424 141 L407 131 L407 112 L424 102 Z" stroke = "black" stroke-width = "2" fill = "black" />	<path d = "M462 74 L462 94 L445 103 L429 94 L429 74 L445 65 L462 74 Z" stroke = "black" stroke-width = "2" fill = "black" />	<path d = "M505 74 L505 94 L489 103 L472 94 L472 74 L489 65 L505 74 Z" stroke = "black" stroke-width = "2" fill = "black" />	<path d = "M549 74 L549 94 L532 103 L515 94 L515 74 L532 65 L549 74 Z" stroke = "black" stroke-width = "2" fill = "black" />	<path d = "M592 74 L592 94 L575 103 L559 94 L559 74 L575 65 L592 74 Z" stroke = "black" stroke-width = "2" fill = "black" />	<path d = "M635 74 L635 94 L619 103 L602 94 L602 74 L619 65 L635 74 Z" stroke = "black" stroke-width = "2" fill = "black" />	<path d = "M678 74 L678 94 L662 103 L645 94 L645 74 L662 65 L678 74 Z" stroke = "black" stroke-width = "2" fill = "black" />	<path d = "M722 94 L705 103 L689 94 L689 74 L705 65 L722 74 L722 94 Z" stroke = "black" stroke-width = "2" fill = "black" />	<path d = "M743 131 L727 141 L710 131 L710 112 L727 102 L743 112 L743 131 Z" stroke = "black" stroke-width = "2" fill = "black" />	<path d = "M765 169 L749 178 L732 169 L732 149 L749 140 L765 149 L765 169 Z" stroke = "black" stroke-width = "2" fill = "black" />	<path d = "M787 206 L770 216 L754 206 L754 187 L770 177 L787 187 L787 206 Z" stroke = "black" stroke-width = "2" fill = "black" />	<path d = "M808 244 L792 253 L775 244 L775 224 L792 215 L808 224 L808 244 Z" stroke = "black" stroke-width = "2" fill = "black" />	<path d = "M830 281 L813 291 L797 281 L797 262 L813 252 L830 262 L830 281 Z" stroke = "black" stroke-width = "2" fill = "black" />	<path d = "M835 328 L819 319 L819 299 L835 290 L852 299 L852 319 L835 328 Z" stroke = "black" stroke-width = "2" fill = "black" />	<path d = "M813 366 L797 356 L797 337 L813 327 L830 337 L830 356 L813 366 Z" stroke = "black" stroke-width = "2" fill = "black" />	<path d = "M792 403 L775 394 L775 374 L792 365 L808 374 L808 394 L792 403 Z" stroke = "black" stroke-width = "2" fill = "black" />	<path d = "M770 441 L754 431 L754 412 L770 402 L787 412 L787 431 L770 441 Z" stroke = "black" stroke-width = "2" fill = "black" />	<path d = "M749 478 L732 469 L732 449 L749 440 L765 449 L765 469 L749 478 Z" stroke = "black" stroke-width = "2" fill = "black" />	<path d = "M727 516 L710 506 L710 487 L727 477 L743 487 L743 506 L727 516 Z" stroke = "black" stroke-width = "2" fill = "black" />	<path d = "M689 544 L689 524 L705 515 L722 524 L722 544 L705 553 L689 544 Z" stroke = "black" stroke-width = "2" fill = "black" />	<path d = "M645 544 L645 524 L662 515 L678 524 L678 544 L662 553 L645 544 Z" stroke = "black" stroke-width = "2" fill = "black" />	<path d = "M602 544 L602 524 L619 515 L635 524 L635 544 L619 553 L602 544 Z" stroke = "black" stroke-width = "2" fill = "black" />	<path d = "M559 544 L559 524 L575 515 L592 524 L592 544 L575 553 L559 544 Z" stroke = "black" stroke-width = "2" fill = "black" />	<path d = "M515 544 L515 524 L532 515 L549 524 L549 544 L532 553 L515 544 Z" stroke = "black" stroke-width = "2" fill = "black" />	<path d = "M472 544 L472 524 L489 515 L505 524 L505 544 L489 553 L472 544 Z" stroke = "black" stroke-width = "2" fill = "black" />	<path d = "M429 524 L445 515 L462 524 L462 544 L445 553 L429 544 L429 524 Z" stroke = "black" stroke-width = "2" fill = "black" />	<path d = "M407 487 L424 477 L440 487 L440 506 L424 516 L407 506 L407 487 Z" stroke = "black" stroke-width = "2" fill = "black" />	<path d = "M386 449 L402 440 L419 449 L419 469 L402 478 L386 469 L386 449 Z" stroke = "black" stroke-width = "2" fill = "black" />	<path d = "M364 412 L380 402 L397 412 L397 431 L380 441 L364 431 L364 412 Z" stroke = "black" stroke-width = "2" fill = "black" />	<path d = "M342 374 L359 365 L375 374 L375 394 L359 403 L342 394 L342 374 Z" stroke = "black" stroke-width = "2" fill = "black" />	<path d = "M321 337 L337 327 L354 337 L354 356 L337 366 L321 356 L321 337 Z" stroke = "black" stroke-width = "2" fill = "black" /></svg>