<svg width="1368" height="798" viewbox = "0 0 1368 798"  xmlns="http://www.w3.org/2000/svg">

<!--
<json>
{
    "svgwidth": 1368,
    "svgheight": 798,
    "unit": 100,
    "x0": 684,
    "y0": 399,
    "x0rel": 0,
    "y0rel": 0,
    "glyph": "0336,0336,0336,0331,0331,0331,0331,0331,0331,0331,0331,0332,0332,0332,0332,0332,0222,0222,0232,0232,0232,0232,0232,0335,0337,0232,0232,",
    "table": [
        "0220:0304,0313,0210,0210,0336,0333,0331,0337,0204,0336,0330,0332,0337,0211,0211,",
        "0221:0304,0313,0330,0220,",
        "0222:0220,0221,0221,0221,",
        "0223:0304,0313,0336,0333,0334,0337,0362,0203,0335,0203,0203,0334,0336,0203,0335,0350,0335,0310,0337,0203,0203,0335,0335,0203,0203,0335,0335,0335,0336,0203,0304,0313,0334,0203,0203,0203,0203,0363,0335,0335,0332,0337,0330,0330,0330,",
        "0224:0230,",
        "0225:0224,0330,0333,0224,0330,0333,0224,0330,0333,0224,0330,0333,0224,0330,0333,0224,0330,0333,",
        "0226:0232,",
        "0230:0313,0210,0210,0306,0330,0335,0335,0362,0203,0335,0203,0335,0203,0335,0203,0335,0203,0335,0203,0363,0334,0331,0211,0211,",
        "0231:0230,0333,0330,0230,",
        "0232:0231,0231,0231,",
        "0233:0313,0306,0362,0203,0335,0335,0203,0335,0335,0203,0335,0335,0363,",
        "01220:0333,0200,0332,0336,0333,0330,0220,0333,0331,0337,",
        "01221:0333,0200,0336,0332,0337,0221,0336,0333,0337,0331,",
        "01222:0333,0200,0336,0332,0222,0331,0331,0331,0333,0337,",
        "01223:0333,0200,0336,0332,0223,0331,0331,0331,0333,0337,",
        "01224:0333,0200,0336,0330,0332,0224,0304,0333,0331,0337,",
        "01225:0333,0200,0336,0332,0332,0225,0331,0331,0334,0330,0335,0331,0331,0331,0331,0332,0332,0331,0331,0331,0331,0332,0332,0331,0331,0331,0332,0330,0337,0304,0333,",
        "01226:0333,0200,0336,0336,0332,0332,0332,0332,0226,0331,0335,0331,0334,0331,0335,0331,0334,0331,0335,0331,0334,0304,0337,0337,0333,",
        "01230:0333,0200,0336,0330,0332,0230,0331,0304,0333,0337,",
        "01231:0333,0200,0332,0336,0330,0231,0335,0331,0334,0331,0331,0304,0337,0333,",
        "01232:0333,0200,0332,0336,0336,0232,0335,0331,0334,0331,0335,0331,0334,0331,0335,0331,0334,0331,0304,0337,0337,0333,",
        "01233:0333,0200,0336,0332,0337,0233,0304,0336,0333,0337,"
    ]
}
</json>
-->
	<path d = "M626 504 L626 494 L617 494 L617 504 L626 504 Z" stroke = "black" stroke-width = "2" fill = "black" />	<path d = "M626 491 L626 482 L617 482 L617 491 L626 491 Z" stroke = "black" stroke-width = "2" fill = "black" />	<path d = "M626 479 L626 469 L617 469 L617 479 L626 479 Z" stroke = "black" stroke-width = "2" fill = "black" />	<path d = "M626 466 L626 457 L617 457 L617 466 L626 466 Z" stroke = "black" stroke-width = "2" fill = "black" />	<path d = "M626 466 L626 457 L617 457 L617 466 L626 466 Z" stroke = "black" stroke-width = "2" fill = "black" />	<path d = "M626 454 L626 444 L617 444 L617 454 L626 454 Z" stroke = "black" stroke-width = "2" fill = "black" />	<path d = "M626 441 L626 432 L617 432 L617 441 L626 441 Z" stroke = "black" stroke-width = "2" fill = "black" />	<path d = "M626 429 L626 419 L617 419 L617 429 L626 429 Z" stroke = "black" stroke-width = "2" fill = "black" />	<path d = "M621 414 L630 419 L630 429 L621 434 L613 429 L613 419 L621 414 Z" stroke = "black" stroke-width = "2" fill = "black" />	<path d = "M632 396 L641 400 L641 410 L632 415 L624 410 L624 400 L632 396 Z" stroke = "black" stroke-width = "2" fill = "black" />	<path d = "M632 396 L641 400 L641 410 L632 415 L624 410 L624 400 L632 396 Z" stroke = "black" stroke-width = "2" fill = "black" />	<path d = "M643 377 L651 382 L651 391 L643 396 L635 391 L635 382 L643 377 Z" stroke = "black" stroke-width = "2" fill = "black" />	<path d = "M643 377 L651 382 L651 391 L643 396 L635 391 L635 382 L643 377 Z" stroke = "black" stroke-width = "2" fill = "black" />	<path d = "M654 358 L662 363 L662 373 L654 377 L646 373 L646 363 L654 358 Z" stroke = "black" stroke-width = "2" fill = "black" />	<path d = "M654 358 L662 363 L662 373 L654 377 L646 373 L646 363 L654 358 Z" stroke = "black" stroke-width = "2" fill = "black" />	<path d = "M665 339 L673 344 L673 354 L665 359 L657 354 L657 344 L665 339 Z" stroke = "black" stroke-width = "2" fill = "black" />	<path d = "M665 339 L673 344 L673 354 L665 359 L657 354 L657 344 L665 339 Z" stroke = "black" stroke-width = "2" fill = "black" />	<path d = "M676 321 L684 325 L684 335 L676 340 L667 335 L667 325 L676 321 Z" stroke = "black" stroke-width = "2" fill = "black" />	<path d = "M676 321 L684 325 L684 335 L676 340 L667 335 L667 325 L676 321 Z" stroke = "black" stroke-width = "2" fill = "black" />	<path d = "M686 302 L695 307 L695 316 L686 321 L678 316 L678 307 L686 302 Z" stroke = "black" stroke-width = "2" fill = "black" />	<path d = "M686 302 L695 307 L695 316 L686 321 L678 316 L678 307 L686 302 Z" stroke = "black" stroke-width = "2" fill = "black" />	<path d = "M697 283 L706 288 L706 298 L697 302 L689 298 L689 288 L697 283 Z" stroke = "black" stroke-width = "2" fill = "black" />	<path d = "M697 283 L706 288 L706 298 L697 302 L689 298 L689 288 L697 283 Z" stroke = "black" stroke-width = "2" fill = "black" />	<path d = "M708 264 L716 269 L716 279 L708 284 L700 279 L700 269 L708 264 Z" stroke = "black" stroke-width = "2" fill = "black" />	<path d = "M708 264 L716 269 L716 279 L708 284 L700 279 L700 269 L708 264 Z" stroke = "black" stroke-width = "2" fill = "black" />	<path d = "M719 246 L727 250 L727 260 L719 265 L711 260 L711 250 L719 246 Z" stroke = "black" stroke-width = "2" fill = "black" />	<path d = "M719 246 L727 250 L727 260 L719 265 L711 260 L711 250 L719 246 Z" stroke = "black" stroke-width = "2" fill = "black" />	<path d = "M730 227 L738 232 L738 241 L730 246 L721 241 L721 232 L730 227 Z" stroke = "black" stroke-width = "2" fill = "black" />	<path d = "M730 227 L738 232 L738 241 L730 246 L721 241 L721 232 L730 227 Z" stroke = "black" stroke-width = "2" fill = "black" />	<path d = "M741 208 L749 213 L749 223 L741 227 L732 223 L732 213 L741 208 Z" stroke = "black" stroke-width = "2" fill = "black" />	<path d = "M741 208 L749 213 L749 223 L741 227 L732 223 L732 213 L741 208 Z" stroke = "black" stroke-width = "2" fill = "black" />	<path d = "M751 189 L760 194 L760 204 L751 209 L743 204 L743 194 L751 189 Z" stroke = "black" stroke-width = "2" fill = "black" />	<path d = "M751 189 L760 194 L760 204 L751 209 L743 204 L743 194 L751 189 Z" stroke = "black" stroke-width = "2" fill = "black" />	<path d = "M762 171 L770 175 L770 185 L762 190 L754 185 L754 175 L762 171 Z" stroke = "black" stroke-width = "2" fill = "black" />	<path d = "M762 171 L770 175 L770 185 L762 190 L754 185 L754 175 L762 171 Z" stroke = "black" stroke-width = "2" fill = "black" />	<path d = "M773 152 L781 157 L781 166 L773 171 L765 166 L765 157 L773 152 Z" stroke = "black" stroke-width = "2" fill = "black" />	<path d = "M773 152 L781 157 L781 166 L773 171 L765 166 L765 157 L773 152 Z" stroke = "black" stroke-width = "2" fill = "black" />	<path d = "M784 133 L792 138 L792 148 L784 152 L776 148 L776 138 L784 133 Z" stroke = "black" stroke-width = "2" fill = "black" />	<path d = "M800 133 L800 152 L784 162 L767 152 L767 133 L784 124 L800 133 Z" stroke = "black" stroke-width = "2" fill = "black" />	<path d = "M844 133 L844 152 L827 162 L811 152 L811 133 L827 124 L844 133 Z" stroke = "black" stroke-width = "2" fill = "black" />	<path d = "M844 133 L844 152 L827 162 L811 152 L811 133 L827 124 L844 133 Z" stroke = "black" stroke-width = "2" fill = "black" />	<path d = "M887 133 L887 152 L870 162 L854 152 L854 133 L870 124 L887 133 Z" stroke = "black" stroke-width = "2" fill = "black" />	<path d = "M887 133 L887 152 L870 162 L854 152 L854 133 L870 124 L887 133 Z" stroke = "black" stroke-width = "2" fill = "black" />	<path d = "M930 133 L930 152 L914 162 L897 152 L897 133 L914 124 L930 133 Z" stroke = "black" stroke-width = "2" fill = "black" />	<path d = "M930 133 L930 152 L914 162 L897 152 L897 133 L914 124 L930 133 Z" stroke = "black" stroke-width = "2" fill = "black" />	<path d = "M974 133 L974 152 L957 162 L941 152 L941 133 L957 124 L974 133 Z" stroke = "black" stroke-width = "2" fill = "black" />	<path d = "M974 133 L974 152 L957 162 L941 152 L941 133 L957 124 L974 133 Z" stroke = "black" stroke-width = "2" fill = "black" />	<path d = "M1017 133 L1017 152 L1000 162 L984 152 L984 133 L1000 124 L1017 133 Z" stroke = "black" stroke-width = "2" fill = "black" />	<path d = "M1017 133 L1017 152 L1000 162 L984 152 L984 133 L1000 124 L1017 133 Z" stroke = "black" stroke-width = "2" fill = "black" />	<path d = "M1060 133 L1060 152 L1044 162 L1027 152 L1027 133 L1044 124 L1060 133 Z" stroke = "black" stroke-width = "2" fill = "black" /></svg>