<svg width="250" height="250" viewbox = "0 0 250 250"  xmlns="http://www.w3.org/2000/svg">

<!--
<json>
{
    "svgwidth": 250,
    "svgheight": 250,
    "unit": 100,
    "x0": 684,
    "y0": 399,
    "x0rel": 0,
    "y0rel": 0,
    "glyph": "0333,0333,0336,0332,0332,0332,0331,0332,0336,0222,0222,0222,0222,0225,0222,0222,0222,0222,0224,0222,0224,0222,0222,0222,0222,0222,0222,0224,0222,0222,0222,0222,0222,0222,0222,0224,0222,0222,0222,0222,0224,0222,0222,0222,",
    "table": [
        "0220:0304,0313,0210,0210,0336,0333,0331,0337,0204,0336,0330,0332,0337,0211,0211,",
        "0221:0304,0313,0330,0220,",
        "0222:0313,0304,0336,0334,0336,0336,0362,0203,0335,0337,0337,0203,0203,0335,0336,0203,0335,0337,0203,0203,0335,0336,0336,0203,0363,0335,0337,0337,0330,0330,0337,",
        "0223:0304,0313,0334,0336,0336,0336,0362,0203,0335,0337,0337,0203,0336,0203,0334,0336,0203,0335,0310,0350,0335,0337,0203,0203,0335,0335,0203,0203,0335,0335,0335,0336,0203,0313,0304,0334,0337,0337,0203,0336,0203,0335,0336,0203,0363,0335,0337,0337,0337,0330,",
        "0224:0304,0313,0336,0336,0336,0333,0337,0350,0334,0334,0362,0203,0331,0335,0345,0333,0334,0334,0334,0203,0363,0335,0335,0335,0335,0336,0330,0335,0335,0304,0337,0337,0337,",
        "0225:0313,0304,0336,0336,0336,0332,0337,0335,0362,0203,0331,0350,0334,0346,0332,0335,0335,0335,0203,0363,0334,0334,0334,0334,0304,0336,0330,0334,0337,0337,0337,",
        "0226:0321,0341,0320, ",
        "0227:0333,0331,0337,0321,0200,0336,0332,0337,0320,0342,0336,0333,0330,0334,0337,0342,0335,0336,0332,",
        "0230:0312,0336,0330,0335,0337,0321,0306,0362,0203,0335,0335,0203,0203,0335,0335,0203,0203,0335,0335,0203,0354,0304,0334,0306,0335,0335,0350,0335,0320,0362,0203,0335,0335,0335,0335,0203,0335,0335,0335,0335,0203,0354,0334,0304,0312,0336,0331,0337,0313,",
        "0231:0331,0333,0334,0321,0337,0305,0311,0362,0203,0335,0350,0335,0337,0203,0335,0335,0335,0335,0203,0354,0335,0335,0335,0335,0320,0336,0201,0335,0335,0335,0335,0336,0201,0334,0334,0334,0334,0201,0335,0335,0335,0335,0336,0201,0334,0334,0334,0334,0201,0335,0335,0335,0335,0336,0201,0334,0334,0334,0334,0201,0331,0335,0335,0335,0335,0331,0334,0334,0334,0334,0337,0331,0335,0335,0335,0335,0337,0336,0331,0334,0334,0334,0334,0337,0331,0335,0335,0335,0335,0331,0334,0334,0334,0334,0337,0331,0335,0334,0334,0313,0336,0330,0304,0335,0337,0336,0330,",
        "0232:0331,0333,0334,0305,0337,0311,0335,0337,0321,0362,0203,0335,0335,0336,0203,0335,0203,0354,0335,0335,0320,0350,0335,0330,0334,0334,0334,0336,0201,0335,0335,0335,0336,0201,0334,0334,0336,0334,0201,0335,0335,0335,0336,0201,0334,0334,0334,0336,0201,0331,0335,0335,0335,0337,0331,0335,0335,0337,0330,0335,0335,0335,0337,0330,0334,0334,0334,0337,0330,0335,0335,0335,0337,0330,0335,0335,0313,0336,0304,0335,0332,0330,",
        "0233:0321,0350,0310,0362,0203,0203,0335,0335,0335,0337,0203,0203,0335,0335,0335,0336,0203,0203,0354,0335,0335,0335,0320,0337,0201,0334,0334,0334,0336,0201,0335,0335,0335,0336,0201,0334,0334,0334,0336,0201,0335,0335,0335,0336,0201,0334,0334,0334,0336,0201,0335,0335,0335,0336,0201,0331,0337,0333,0337,0331,0337,0333,0337,0331,0337,0333,0337,0331,0334,0336,0304,0313,",
        "0234:0320,0304,0313,0332,0332,0335,0321,0337,0362,0203,0334,0312,0336,0203,0306,0334,0334,0313,0337,0203,0354,0350,0335,0336,0312,0337,0331,0335,0335,0336,0313,0336,0312,0337,0320,0201,0334,0334,0334,0334,0335,0334,0201,0335,0335,0336,0335,0201,0334,0334,0334,0336,0201,0335,0335,0335,0336,0201,0331,0335,0335,0337,0333,0334,0334,0337,0331,0335,0335,0335,0337,0330,0334,0334,0331,0313,0337,0313,0334,0334,0336,0304,0304,0313,0335,",
        "0235:0332,0321,0337,0362,0203,0335,0311,0337,0203,0335,0336,0203,0335,0337,0203,0354,0335,0336,0333,0200,0350,0334,0343,0335,0330,0336,0331,0335,0343,0335,0342,0334,0335,0330,0336,0331,0335,0343,0335,0342,0330,0336,0331,0335,0343,0335,0342,0330,0336,0331,0335,0343,0335,0342,0330,0336,0331,0335,0343,0335,0342,0334,0334,0330,0337,0331,0335,0335,0331,0334,0334,0337,0331,0335,0335,0337,0337,0337,0331,0334,0334,0304,0313,0336,0333,0320,",
        "0236:0335,0331,0337,0321,0305,0362,0203,0335,0335,0203,0335,0335,0203,0335,0335,0203,0335,0335,0203,0354,0335,0350,0335,0311,0336,0362,0203,0335,0335,0203,0335,0335,0203,0335,0335,0203,0335,0335,0203,0354,0335,0335,0335,0337,0313,0336,0330,0304,0334,0320,",
        "0237:0330,0306,0335,0335,0321,0362,0203,0335,0203,0335,0203,0335,0203,0335,0203,0335,0203,0335,0354,0330,0335,0335,0350,0335,0312,0337,0362,0203,0334,0334,0334,0334,0203,0334,0334,0334,0334,0203,0354,0334,0336,0331,0334,0337,0362,0203,0334,0334,0334,0334,0203,0334,0334,0334,0334,0203,0354,0334,0336,0331,0334,0334,0330,0304,0313,0320,",
        "0240:0331,0321,0334,0336,0362,0203,0335,0337,0203,0203,0334,0336,0203,0335,0350,0310,0335,0337,0203,0203,0335,0335,0203,0203,0335,0335,0335,0336,0203,0313,0304,0334,0203,0203,0203,0203,0335,0203,0354,0335,0337,0330,0320,",
        "0241:0306,0362,0203,0335,0335,0203,0335,0335,0203,0363,0335,0335,0304,",
        "0242:0241,0333,0336,0333,0337,0241,0336,0333,0337,0333,0241,0333,0336,0333,0337,",
        "0243:0313,0304,0320,0350,0310,0335,0337,0362,0203,0335,0336,0203,0335,0335,0335,0337,0203,0335,0336,0203,0363,0335,0335,0324,0362,0203,0335,0335,0203,0335,0335,0335,0337,0203,0363,0335,0336,0331,0335,0335,0335,0337,0362,0203,0335,0335,0335,0336,0203,0335,0335,0203,0363,0320,0331,0335,0335,0304,0313,",
        "0244:0243,0243,0243,0243,",
        "0245:0321,0337,0201,0320,0336,0334,0336,0336,0306,0336,0362,0203,0335,0335,0337,0203,0335,0335,0203,0335,0335,0336,0203,0363,0304,0335,0337,0337,0337,0337,0331,0336,",
        "0246:0320,0335,0306,0350,0334,0330,0321,0337,0366,0336,0331,0335,0335,0330,0337,0336,0336,0336,0336,0336,0330,0337,0337,0337,0337,0337,0367,0336,0336,0336,0336,0336,0331,0335,0337,0320,0337,0362,0203,0334,0334,0334,0334,0203,0334,0334,0334,0334,0203,0363,0335,0337,0337,0330,0335,0335,0304,",
        "0247:0336,0336,0336,0347,0337,0337,0337,",
        "0250:0335,0337,0331,0337,0223,",
        "01220:0333,0200,0336,0332,0330,0220,0333,0331,0337,",
        "01221:0333,0200,0336,0332,0336,0330,0337,0220,0221,0333,0331,0331,0336,0330,0337,0337,",
        "01222:0333,0200,0336,0332,0337,0222,0336,0333,0337,0331,",
        "01223:0333,0200,0336,0332,0337,0223,0336,0333,0337,0331,",
        "01224:0333,0200,0336,0332,0336,0332,0337,0222,0224,0223,0334,0336,0333,0331,0331,0336,0336,0332,0331,0337,0337,0337,0337,",
        "01225:0333,0200,0336,0336,0333,0337,0332,0222,0225,0223,0335,0331,0333,0336,0333,0336,0336,0333,0331,0337,0337,0337,0337,",
        "01226:0333,0200,0336,0330,0332,0226,0333,0331,0337,",
        "01227:0333,0200,0336,0330,0332,0210,0227,0211,0331,0333,0337,",
        "01230:0333,0200,0336,0330,0332,0230,0331,0304,0333,0337,",
        "01231:0333,0200,0332,0336,0330,0333,0231,0333,0331,0337,",
        "01232:0333,0200,0336,0332,0330,0332,0232,0333,0331,0333,0337,",
        "01233:0333,0200,0336,0332,0337,0336,0332,0336,0336,0333,0330,0337,0337,0210,0210,0233,0211,0211,0313,0336,0336,0332,0332,0333,0331,0337,0337,0337,0333,",
        "01234:0333,0200,0336,0234,0337,",
        "01235:0333,0200,0336,0332,0336,0330,0332,0235,0333,0333,0333,0336,0336,0331,0331,0331,0331,0337,0337,0337,0337,",
        "01236:0333,0200,0336,0330,0330,0332,0336,0331,0337,0236,0333,0331,0331,0336,0330,0337,0337,",
        "01237:0333,0200,0336,0330,0332,0237,0333,0331,0337,",
        "01240:0333,0200,0336,0336,0332,0332,0240,0333,0333,0337,0337,",
        "01241:0333,0200,0336,0332,0241,0333,0337,",
        "01242:0333,0200,0336,0332,0332,0336,0330,0330,0242,0336,0331,0331,0331,0331,0332,0337,0337,0337,",
        "01243:0333,0200,0336,0332,0332,0243,0337,",
        "01244:0333,0200,0332,0336,0330,0336,0336,0243,0243,0243,0243,0331,0331,0331,0331,0337,0337,0337,",
        "01245:0333,0200,0336,0332,0336,0331,0337,0245,0333,0336,0330,0337,0337,",
        "01246:0333,0200,0330,0332,0336,0331,0336,0332,0337,0246,0333,0333,0336,0333,0331,0331,0337,0337,",
        "01247:0333,0200,0336,0330,0332,0337,0247,0336,0333,0331,0337,"
    ]
}
</json>
-->
	<path d = "M125 175 L122 175 L122 163 L122 150 L128 150 L128 163 L128 175 L125 175 Z" stroke = "black" stroke-width = "3" fill = "black" />	<path d = "M125 150 L122 150 L122 138 L122 125 L128 125 L128 138 L128 150 L125 150 Z" stroke = "black" stroke-width = "3" fill = "black" />	<path d = "M125 125 L122 125 L122 113 L122 100 L128 100 L128 113 L128 125 L125 125 Z" stroke = "black" stroke-width = "3" fill = "black" />	<path d = "M125 100 L122 100 L122 88 L122 75 L128 75 L128 88 L128 100 L125 100 Z" stroke = "black" stroke-width = "3" fill = "black" />	<path d = "M122 75 L128 75 M121.87500000000003 68.74999999999999           A6.25 6.25 0 0 1 128.125 75.00000000000003L122 75 Z" stroke = "black" stroke-width = "3" fill = "black" />	<path d = "M122 72 L122 75 L109 75 L97 75 L97 69 L109 69 L122 69 L122 72 Z" stroke = "black" stroke-width = "3" fill = "black" />	<path d = "M97 72 L97 75 L84 75 L72 75 L72 69 L84 69 L97 69 L97 72 Z" stroke = "black" stroke-width = "3" fill = "black" />	<path d = "M72 72 L72 75 L59 75 L47 75 L47 69 L59 69 L72 69 L72 72 Z" stroke = "black" stroke-width = "3" fill = "black" />	<path d = "M47 72 L47 75 L34 75 L22 75 L22 69 L34 69 L47 69 L47 72 Z" stroke = "black" stroke-width = "3" fill = "black" />	<path d = "M22 69 L22 75 M21.874999999999876 74.99999999999837           A6.25 6.25 0 0 1 15.6250000000001 68.74999999999818L22 69 Z" stroke = "black" stroke-width = "3" fill = "black" />	<path d = "M19 69 L16 69 L16 56 L16 44 L22 44 L22 56 L22 69 L19 69 Z" stroke = "black" stroke-width = "3" fill = "black" />	<path d = "M22 44 L16 44 M15.625000000000803 43.74999999999821           A6.25 6.25 0 0 1 21.875000000001002 37.499999999998444L22 44 Z" stroke = "black" stroke-width = "3" fill = "black" />	<path d = "M22 41 L22 37 L34 37 L47 37 L47 44 L34 44 L22 44 L22 41 Z" stroke = "black" stroke-width = "3" fill = "black" />	<path d = "M47 41 L47 37 L59 37 L72 38 L72 44 L59 44 L47 44 L47 41 Z" stroke = "black" stroke-width = "3" fill = "black" />	<path d = "M72 41 L72 37 L84 37 L97 38 L97 44 L84 44 L72 44 L72 41 Z" stroke = "black" stroke-width = "3" fill = "black" />	<path d = "M97 41 L97 37 L109 37 L122 37 L122 44 L109 44 L97 44 L97 41 Z" stroke = "black" stroke-width = "3" fill = "black" />	<path d = "M122 41 L122 37 L134 37 L147 37 L147 44 L134 44 L122 44 L122 41 Z" stroke = "black" stroke-width = "3" fill = "black" />	<path d = "M147 41 L147 37 L159 37 L172 37 L172 44 L159 44 L147 44 L147 41 Z" stroke = "black" stroke-width = "3" fill = "black" />	<path d = "M172 44 L172 37 M171.87500000000063 37.49999999999729           A6.25 6.25 0 0 1 178.12500000000102 43.749999999996874L172 44 Z" stroke = "black" stroke-width = "3" fill = "black" />	<path d = "M175 44 L178 44 L178 56 L178 69 L172 69 L172 56 L172 44 L175 44 Z" stroke = "black" stroke-width = "3" fill = "black" />	<path d = "M175 69 L178 69 L178 81 L178 94 L172 94 L172 81 L172 69 L175 69 Z" stroke = "black" stroke-width = "3" fill = "black" />	<path d = "M175 94 L178 94 L178 106 L178 119 L172 119 L172 106 L172 94 L175 94 Z" stroke = "black" stroke-width = "3" fill = "black" />	<path d = "M175 119 L178 119 L178 131 L178 144 L172 144 L172 131 L172 119 L175 119 Z" stroke = "black" stroke-width = "3" fill = "black" />	<path d = "M175 144 L178 144 L178 156 L178 169 L172 169 L172 156 L172 144 L175 144 Z" stroke = "black" stroke-width = "3" fill = "black" />	<path d = "M175 169 L178 169 L178 181 L178 194 L172 194 L172 181 L172 169 L175 169 Z" stroke = "black" stroke-width = "3" fill = "black" />	<path d = "M175 194 L178 194 L178 206 L178 219 L172 219 L172 206 L172 194 L175 194 Z" stroke = "black" stroke-width = "3" fill = "black" />	<path d = "M172 219 L178 219 M178.12500000002711 218.74999999999633           A6.25 6.25 0 0 1 171.8750000000285 224.9999999999977L172 219 Z" stroke = "black" stroke-width = "3" fill = "black" />	<path d = "M172 222 L172 225 L159 225 L147 225 L147 219 L159 219 L172 219 L172 222 Z" stroke = "black" stroke-width = "3" fill = "black" />	<path d = "M147 222 L147 225 L134 225 L122 225 L122 219 L134 219 L147 219 L147 222 Z" stroke = "black" stroke-width = "3" fill = "black" />	<path d = "M122 222 L122 225 L109 225 L97 225 L97 219 L109 219 L122 219 L122 222 Z" stroke = "black" stroke-width = "3" fill = "black" />	<path d = "M97 222 L97 225 L84 225 L72 225 L72 219 L84 219 L97 219 L97 222 Z" stroke = "black" stroke-width = "3" fill = "black" />	<path d = "M72 219 L72 225 M71.87500000002879 225.00000000002487           A6.25 6.25 0 0 1 65.62500000002686 218.75000000002683L72 219 Z" stroke = "black" stroke-width = "3" fill = "black" />	<path d = "M69 219 L66 219 L66 206 L66 194 L72 194 L72 206 L72 219 L69 219 Z" stroke = "black" stroke-width = "3" fill = "black" />	<path d = "M69 194 L66 194 L66 181 L66 169 L72 169 L72 181 L72 194 L69 194 Z" stroke = "black" stroke-width = "3" fill = "black" />	<path d = "M69 169 L66 169 L66 156 L66 144 L72 144 L72 156 L72 169 L69 169 Z" stroke = "black" stroke-width = "3" fill = "black" /></svg>